<svg width="24" height="24" viewBox="0 0 24 24" fill="none" xmlns="http://www.w3.org/2000/svg">
<g opacity="0.4">
<path opacity="0.4" d="M23 21.75H20.1053V24H23V21.75Z" fill="url(#paint0_radial)"/>
<path opacity="0.4" d="M1.00001 24H3.89475V21.75H1.00001V24Z" fill="url(#paint1_radial)"/>
<path opacity="0.4" d="M20.1053 21.75H3.89475V24H20.1053V21.75Z" fill="url(#paint2_linear)"/>
</g>
<g opacity="0.4">
<path opacity="0.4" d="M23 21.75H20.1053V24H23V21.75Z" fill="url(#paint3_radial)"/>
<path opacity="0.4" d="M1.00001 24H3.89475V21.75H1.00001V24Z" fill="url(#paint4_radial)"/>
<path opacity="0.4" d="M20.1053 21.75H3.89475V24H20.1053V21.75Z" fill="url(#paint5_linear)"/>
</g>
<g opacity="0.4">
<path opacity="0.4" d="M23 21.75H20.1053V24H23V21.75Z" fill="url(#paint6_radial)"/>
<path opacity="0.4" d="M1.00001 24H3.89475V21.75H1.00001V24Z" fill="url(#paint7_radial)"/>
<path opacity="0.4" d="M20.1053 21.75H3.89475V24H20.1053V21.75Z" fill="url(#paint8_linear)"/>
</g>
<g opacity="0.4">
<path opacity="0.4" d="M24 21H20.8421V24H24V21Z" fill="url(#paint9_radial)"/>
<path opacity="0.4" d="M3.8147e-06 24H3.1579V21H3.8147e-06V24Z" fill="url(#paint10_radial)"/>
<path opacity="0.4" d="M20.8421 21H3.1579V24H20.8421V21Z" fill="url(#paint11_linear)"/>
</g>
<rect x="2" y="2" width="20" height="20" rx="1" fill="url(#paint12_radial)"/>
<rect x="1.75" y="1.75" width="20.5" height="20.5" rx="1.25" stroke="#66635D" stroke-opacity="0.2" stroke-width="0.5"/>
<rect x="1.5" y="1.5" width="21" height="21" rx="1.5" stroke="#66635D" stroke-opacity="0.5"/>
<rect opacity="0.3" x="2.5" y="2.5" width="19" height="19" rx="0.5" stroke="url(#paint13_linear)" stroke-linecap="round" stroke-linejoin="round"/>
<g opacity="0.2" filter="url(#filter0_f)">
<rect x="4" y="4" width="16" height="16" rx="1" fill="url(#paint14_radial)"/>
<rect x="3.75" y="3.75" width="16.5" height="16.5" rx="1.25" stroke="#66635D" stroke-opacity="0.2" stroke-width="0.5"/>
<rect x="3.5" y="3.5" width="17" height="17" rx="1.5" stroke="#84817D" stroke-opacity="0.5"/>
<rect opacity="0.2" x="4" y="4" width="16" height="16" rx="1" fill="#84817D"/>
<rect opacity="0.3" x="4.5" y="4.5" width="15" height="15" rx="0.5" stroke="url(#paint15_linear)" stroke-linecap="round" stroke-linejoin="round"/>
</g>
<g filter="url(#filter1_f)">
<rect x="13.5" y="18.75" width="4.5" height="0.75" rx="0.375" fill="url(#paint16_radial)"/>
<rect x="13.5" y="18.75" width="4.5" height="0.75" rx="0.375" fill="#FFFCF7" style="mix-blend-mode:color"/>
<rect x="13.5" y="18.75" width="4.5" height="0.75" rx="0.375" fill="white" style="mix-blend-mode:soft-light"/>
<rect x="13.25" y="18.5" width="5" height="1.25" rx="0.625" stroke="#84817D" stroke-opacity="0.2" stroke-width="0.5"/>
<rect x="13.25" y="18.5" width="5" height="1.25" rx="0.625" stroke="#84817D" stroke-opacity="0.5" stroke-width="0.5"/>
<rect opacity="0.3" x="13.6875" y="18.9375" width="4.125" height="0.375" rx="0.1875" stroke="url(#paint17_linear)" stroke-width="0.375" stroke-linecap="round" stroke-linejoin="round"/>
</g>
<g filter="url(#filter2_f)">
<rect x="13.5" y="18.75" width="4.5" height="0.75" rx="0.375" fill="url(#paint18_radial)"/>
<rect x="13.5" y="18.75" width="4.5" height="0.75" rx="0.375" fill="#FFFCF7" style="mix-blend-mode:color"/>
<rect x="13.5" y="18.75" width="4.5" height="0.75" rx="0.375" fill="white" style="mix-blend-mode:soft-light"/>
<rect x="13.5" y="18.75" width="4.5" height="0.75" rx="0.375" fill="white" style="mix-blend-mode:soft-light"/>
<rect x="13.25" y="18.5" width="5" height="1.25" rx="0.625" stroke="#84817D" stroke-opacity="0.2" stroke-width="0.5"/>
<rect x="13.25" y="18.5" width="5" height="1.25" rx="0.625" stroke="#84817D" stroke-opacity="0.5" stroke-width="0.5"/>
<rect opacity="0.3" x="13.6875" y="18.9375" width="4.125" height="0.375" rx="0.1875" stroke="url(#paint19_linear)" stroke-width="0.375" stroke-linecap="round" stroke-linejoin="round"/>
</g>
<g filter="url(#filter3_f)">
<rect x="13.5" y="18.375" width="4.5" height="0.75" rx="0.375" fill="white" fill-opacity="0.6" style="mix-blend-mode:soft-light"/>
</g>
<g filter="url(#filter4_f)">
<rect x="3" y="2.5" width="18" height="1.00001" rx="0.500004" fill="white" style="mix-blend-mode:soft-light"/>
</g>
<path d="M18.75 12.3037C18.6125 10.674 17.45 9.75 15.8375 9.75C14.1125 9.75 12.75 10.9306 12.75 13.125C12.75 15.3098 14.075 16.5 15.8375 16.5C17.7125 16.5 18.6625 15.1654 18.75 14.049L16.9875 14.0361C16.9 14.5976 16.5125 14.9472 15.875 14.9472C15.0281 14.9472 14.5375 14.3313 14.5375 13.125C14.5375 11.9829 15.0125 11.3028 15.8875 11.3028C16.5562 11.3028 16.9375 11.707 16.9875 12.3037H18.75Z" fill="#7D30E8"/>
<g filter="url(#filter5_f)">
<path d="M18.75 12.5537H19.022L18.9991 12.2827C18.9255 11.4102 18.5744 10.7079 18.0092 10.2255C17.446 9.74495 16.691 9.5 15.8375 9.5C14.9172 9.5 14.0776 9.81592 13.468 10.4399C12.8581 11.0643 12.5 11.975 12.5 13.125C12.5 14.2685 12.8477 15.1792 13.4531 15.8055C14.0585 16.4319 14.8989 16.75 15.8375 16.75C17.856 16.75 18.9026 15.3017 18.9992 14.0685L19.0202 13.8009L18.7518 13.799L16.9893 13.7861L16.7737 13.7846L16.7405 13.9976C16.7043 14.2297 16.61 14.3988 16.4766 14.5108C16.343 14.6232 16.1475 14.6972 15.875 14.6972C15.519 14.6972 15.2636 14.5718 15.0887 14.3385C14.9053 14.0939 14.7875 13.6999 14.7875 13.125C14.7875 12.5834 14.9009 12.1872 15.0864 11.9329C15.2637 11.6897 15.5233 11.5528 15.8875 11.5528C16.17 11.5528 16.3669 11.637 16.4975 11.7608C16.6293 11.8859 16.7174 12.0741 16.7384 12.3246L16.7576 12.5537H16.9875H18.75Z" stroke="url(#paint20_linear)" stroke-opacity="0.5" stroke-width="0.5"/>
</g>
<g filter="url(#filter6_f)">
<path d="M15.8375 10C16.5965 10 17.229 10.217 17.6846 10.6059C18.0823 10.9453 18.3612 11.429 18.4668 12.0537H17.2017C17.1442 11.7997 17.0261 11.5732 16.8416 11.3981C16.6019 11.1707 16.2738 11.0528 15.8875 11.0528C15.3767 11.0528 14.9613 11.2559 14.6824 11.6383C14.4116 12.0096 14.2875 12.5245 14.2875 13.125C14.2875 13.7564 14.415 14.2735 14.6887 14.6384C14.9707 15.0147 15.3841 15.1972 15.875 15.1972C16.24 15.1972 16.557 15.0965 16.7984 14.8936C16.9863 14.7357 17.1146 14.5273 17.1866 14.2876L18.4621 14.2969C18.2658 15.2341 17.417 16.25 15.8375 16.25C15.0136 16.25 14.3102 15.9729 13.8126 15.458C13.3148 14.943 13 14.1663 13 13.125C13 12.0806 13.3231 11.3038 13.8257 10.7893C14.3287 10.2744 15.0328 10 15.8375 10Z" stroke="url(#paint21_linear)" stroke-width="0.5"/>
</g>
<path d="M9 6.75L6 9.85855L6.8 10.6875L9 8.40789L11.2 10.6875L12 9.85855L9 6.75Z" fill="#7D30E8"/>
<g filter="url(#filter7_f)">
<path d="M9.17989 6.57639L9 6.38999L8.82011 6.57639L5.82011 9.68495L5.65256 9.85855L5.82011 10.0322L6.62011 10.8611L6.8 11.0475L6.97989 10.8611L9 8.7679L11.0201 10.8611L11.2 11.0475L11.3799 10.8611L12.1799 10.0322L12.3474 9.85855L12.1799 9.68495L9.17989 6.57639Z" stroke="url(#paint22_linear)" stroke-opacity="0.5" stroke-width="0.5"/>
</g>
<g filter="url(#filter8_f)">
<path d="M8.82011 8.23429L6.8 10.3275L6.34744 9.85855L9 7.11001L11.6526 9.85855L11.2 10.3275L9.17989 8.23429L9 8.04789L8.82011 8.23429Z" stroke="url(#paint23_linear)" stroke-width="0.5"/>
</g>
<defs>
<filter id="filter0_f" x="2" y="2" width="20" height="20" filterUnits="userSpaceOnUse" color-interpolation-filters="sRGB">
<feFlood flood-opacity="0" result="BackgroundImageFix"/>
<feBlend mode="normal" in="SourceGraphic" in2="BackgroundImageFix" result="shape"/>
<feGaussianBlur stdDeviation="0.5" result="effect1_foregroundBlur"/>
</filter>
<filter id="filter1_f" x="12.5" y="17.75" width="6.5" height="2.75" filterUnits="userSpaceOnUse" color-interpolation-filters="sRGB">
<feFlood flood-opacity="0" result="BackgroundImageFix"/>
<feBlend mode="normal" in="SourceGraphic" in2="BackgroundImageFix" result="shape"/>
<feGaussianBlur stdDeviation="0.25" result="effect1_foregroundBlur"/>
</filter>
<filter id="filter2_f" x="12.5" y="17.75" width="6.5" height="2.75" filterUnits="userSpaceOnUse" color-interpolation-filters="sRGB">
<feFlood flood-opacity="0" result="BackgroundImageFix"/>
<feBlend mode="normal" in="SourceGraphic" in2="BackgroundImageFix" result="shape"/>
<feGaussianBlur stdDeviation="0.25" result="effect1_foregroundBlur"/>
</filter>
<filter id="filter3_f" x="13.25" y="18.125" width="5" height="1.25" filterUnits="userSpaceOnUse" color-interpolation-filters="sRGB">
<feFlood flood-opacity="0" result="BackgroundImageFix"/>
<feBlend mode="normal" in="SourceGraphic" in2="BackgroundImageFix" result="shape"/>
<feGaussianBlur stdDeviation="0.125" result="effect1_foregroundBlur"/>
</filter>
<filter id="filter4_f" x="2" y="1.5" width="20" height="3.00001" filterUnits="userSpaceOnUse" color-interpolation-filters="sRGB">
<feFlood flood-opacity="0" result="BackgroundImageFix"/>
<feBlend mode="normal" in="SourceGraphic" in2="BackgroundImageFix" result="shape"/>
<feGaussianBlur stdDeviation="0.5" result="effect1_foregroundBlur"/>
</filter>
<filter id="filter5_f" x="12" y="9" width="7.54396" height="8.25" filterUnits="userSpaceOnUse" color-interpolation-filters="sRGB">
<feFlood flood-opacity="0" result="BackgroundImageFix"/>
<feBlend mode="normal" in="SourceGraphic" in2="BackgroundImageFix" result="shape"/>
<feGaussianBlur stdDeviation="0.125" result="effect1_foregroundBlur"/>
</filter>
<filter id="filter6_f" x="12.25" y="9.25" width="7" height="7.75" filterUnits="userSpaceOnUse" color-interpolation-filters="sRGB">
<feFlood flood-opacity="0" result="BackgroundImageFix"/>
<feBlend mode="normal" in="SourceGraphic" in2="BackgroundImageFix" result="shape"/>
<feGaussianBlur stdDeviation="0.25" result="effect1_foregroundBlur"/>
</filter>
<filter id="filter7_f" x="5.05513" y="5.78" width="7.88974" height="5.87753" filterUnits="userSpaceOnUse" color-interpolation-filters="sRGB">
<feFlood flood-opacity="0" result="BackgroundImageFix"/>
<feBlend mode="normal" in="SourceGraphic" in2="BackgroundImageFix" result="shape"/>
<feGaussianBlur stdDeviation="0.125" result="effect1_foregroundBlur"/>
</filter>
<filter id="filter8_f" x="5.5" y="6.25" width="7" height="4.9375" filterUnits="userSpaceOnUse" color-interpolation-filters="sRGB">
<feFlood flood-opacity="0" result="BackgroundImageFix"/>
<feBlend mode="normal" in="SourceGraphic" in2="BackgroundImageFix" result="shape"/>
<feGaussianBlur stdDeviation="0.25" result="effect1_foregroundBlur"/>
</filter>
<radialGradient id="paint0_radial" cx="0" cy="0" r="1" gradientUnits="userSpaceOnUse" gradientTransform="translate(20.1012 22.875) scale(2.90021 1.125)">
<stop stop-color="#181818"/>
<stop offset="1" stop-color="#181818" stop-opacity="0"/>
</radialGradient>
<radialGradient id="paint1_radial" cx="0" cy="0" r="1" gradientUnits="userSpaceOnUse" gradientTransform="translate(3.89881 22.875) rotate(180) scale(2.90021 1.125)">
<stop stop-color="#181818"/>
<stop offset="1" stop-color="#181818" stop-opacity="0"/>
</radialGradient>
<linearGradient id="paint2_linear" x1="12.6126" y1="24.0089" x2="12.6126" y2="21.7498" gradientUnits="userSpaceOnUse">
<stop stop-color="#181818" stop-opacity="0"/>
<stop offset="0.5" stop-color="#181818"/>
<stop offset="1" stop-color="#181818" stop-opacity="0"/>
</linearGradient>
<radialGradient id="paint3_radial" cx="0" cy="0" r="1" gradientUnits="userSpaceOnUse" gradientTransform="translate(20.1012 22.875) scale(2.90021 1.125)">
<stop stop-color="#181818"/>
<stop offset="1" stop-color="#181818" stop-opacity="0"/>
</radialGradient>
<radialGradient id="paint4_radial" cx="0" cy="0" r="1" gradientUnits="userSpaceOnUse" gradientTransform="translate(3.89881 22.875) rotate(180) scale(2.90021 1.125)">
<stop stop-color="#181818"/>
<stop offset="1" stop-color="#181818" stop-opacity="0"/>
</radialGradient>
<linearGradient id="paint5_linear" x1="12.6126" y1="24.0089" x2="12.6126" y2="21.7498" gradientUnits="userSpaceOnUse">
<stop stop-color="#181818" stop-opacity="0"/>
<stop offset="0.5" stop-color="#181818"/>
<stop offset="1" stop-color="#181818" stop-opacity="0"/>
</linearGradient>
<radialGradient id="paint6_radial" cx="0" cy="0" r="1" gradientUnits="userSpaceOnUse" gradientTransform="translate(20.1012 22.875) scale(2.90021 1.125)">
<stop stop-color="#181818"/>
<stop offset="1" stop-color="#181818" stop-opacity="0"/>
</radialGradient>
<radialGradient id="paint7_radial" cx="0" cy="0" r="1" gradientUnits="userSpaceOnUse" gradientTransform="translate(3.89881 22.875) rotate(180) scale(2.90021 1.125)">
<stop stop-color="#181818"/>
<stop offset="1" stop-color="#181818" stop-opacity="0"/>
</radialGradient>
<linearGradient id="paint8_linear" x1="12.6126" y1="24.0089" x2="12.6126" y2="21.7498" gradientUnits="userSpaceOnUse">
<stop stop-color="#181818" stop-opacity="0"/>
<stop offset="0.5" stop-color="#181818"/>
<stop offset="1" stop-color="#181818" stop-opacity="0"/>
</linearGradient>
<radialGradient id="paint9_radial" cx="0" cy="0" r="1" gradientUnits="userSpaceOnUse" gradientTransform="translate(20.8377 22.5) scale(3.16386 1.5)">
<stop stop-color="#181818"/>
<stop offset="1" stop-color="#181818" stop-opacity="0"/>
</radialGradient>
<radialGradient id="paint10_radial" cx="0" cy="0" r="1" gradientUnits="userSpaceOnUse" gradientTransform="translate(3.16233 22.5) rotate(180) scale(3.16387 1.5)">
<stop stop-color="#181818"/>
<stop offset="1" stop-color="#181818" stop-opacity="0"/>
</radialGradient>
<linearGradient id="paint11_linear" x1="12.6683" y1="24.0119" x2="12.6683" y2="20.9998" gradientUnits="userSpaceOnUse">
<stop stop-color="#181818" stop-opacity="0"/>
<stop offset="0.5" stop-color="#181818"/>
<stop offset="1" stop-color="#181818" stop-opacity="0"/>
</linearGradient>
<radialGradient id="paint12_radial" cx="0" cy="0" r="1" gradientUnits="userSpaceOnUse" gradientTransform="translate(12.4262 -1.8) rotate(90) scale(47.6 58.4376)">
<stop stop-color="#F2F0EE"/>
<stop offset="0.26238" stop-color="#E5E3DF"/>
<stop offset="0.704952" stop-color="#BFBDB8"/>
<stop offset="1" stop-color="#989898"/>
</radialGradient>
<linearGradient id="paint13_linear" x1="12" y1="1.72973" x2="12" y2="22.2703" gradientUnits="userSpaceOnUse">
<stop stop-color="white"/>
<stop offset="0.0631645" stop-color="white" stop-opacity="0.235294"/>
<stop offset="0.950563" stop-color="white" stop-opacity="0.156863"/>
<stop offset="1" stop-color="white" stop-opacity="0.392157"/>
</linearGradient>
<radialGradient id="paint14_radial" cx="0" cy="0" r="1" gradientUnits="userSpaceOnUse" gradientTransform="translate(12.341 0.960004) rotate(90) scale(38.08 46.7501)">
<stop stop-color="#F2F0EE"/>
<stop offset="0.26238" stop-color="#E5E3DF"/>
<stop offset="0.704952" stop-color="#BFBDB8"/>
<stop offset="1" stop-color="#989898"/>
</radialGradient>
<linearGradient id="paint15_linear" x1="12" y1="3.78378" x2="12" y2="20.2162" gradientUnits="userSpaceOnUse">
<stop stop-color="white"/>
<stop offset="0.0631645" stop-color="white" stop-opacity="0.235294"/>
<stop offset="0.950563" stop-color="white" stop-opacity="0.156863"/>
<stop offset="1" stop-color="white" stop-opacity="0.392157"/>
</linearGradient>
<radialGradient id="paint16_radial" cx="0" cy="0" r="1" gradientUnits="userSpaceOnUse" gradientTransform="translate(15.8459 18.3512) rotate(90) scale(2.31446 17.0485)">
<stop stop-color="#A6A6A6"/>
<stop offset="0.26238" stop-color="#7B7B7B"/>
<stop offset="0.704952" stop-color="#5A5A5A"/>
<stop offset="1" stop-color="#989898"/>
</radialGradient>
<linearGradient id="paint17_linear" x1="15.75" y1="18.7399" x2="15.75" y2="19.5101" gradientUnits="userSpaceOnUse">
<stop stop-color="white"/>
<stop offset="0.0631645" stop-color="white" stop-opacity="0.235294"/>
<stop offset="0.950563" stop-color="white" stop-opacity="0.156863"/>
<stop offset="1" stop-color="white" stop-opacity="0.392157"/>
</linearGradient>
<radialGradient id="paint18_radial" cx="0" cy="0" r="1" gradientUnits="userSpaceOnUse" gradientTransform="translate(15.8459 18.3512) rotate(90) scale(2.31446 17.0485)">
<stop stop-color="#A6A6A6"/>
<stop offset="0.26238" stop-color="#7B7B7B"/>
<stop offset="0.704952" stop-color="#5A5A5A"/>
<stop offset="1" stop-color="#989898"/>
</radialGradient>
<linearGradient id="paint19_linear" x1="15.75" y1="18.7399" x2="15.75" y2="19.5101" gradientUnits="userSpaceOnUse">
<stop stop-color="white"/>
<stop offset="0.0631645" stop-color="white" stop-opacity="0.235294"/>
<stop offset="0.950563" stop-color="white" stop-opacity="0.156863"/>
<stop offset="1" stop-color="white" stop-opacity="0.392157"/>
</linearGradient>
<linearGradient id="paint20_linear" x1="15.75" y1="9.75" x2="15.75" y2="16.5" gradientUnits="userSpaceOnUse">
<stop stop-color="white" stop-opacity="0"/>
<stop offset="1" stop-color="white"/>
</linearGradient>
<linearGradient id="paint21_linear" x1="15.75" y1="9.75" x2="15.75" y2="16.5" gradientUnits="userSpaceOnUse">
<stop stop-color="#371566"/>
<stop offset="1" stop-color="#371566" stop-opacity="0"/>
</linearGradient>
<linearGradient id="paint22_linear" x1="9" y1="6.75" x2="9" y2="10.6875" gradientUnits="userSpaceOnUse">
<stop stop-color="white" stop-opacity="0"/>
<stop offset="1" stop-color="white"/>
</linearGradient>
<linearGradient id="paint23_linear" x1="9" y1="6.75" x2="9" y2="10.6875" gradientUnits="userSpaceOnUse">
<stop stop-color="#371566"/>
<stop offset="1" stop-color="#371566" stop-opacity="0"/>
</linearGradient>
</defs>
</svg>
