<svg width="16" height="16" viewBox="0 0 16 16" fill="none" xmlns="http://www.w3.org/2000/svg">
<rect x="2" y="2" width="12" height="12" rx="1" fill="url(#paint0_radial)"/>
<rect x="1.75" y="1.75" width="12.5" height="12.5" rx="1.25" stroke="#66635D" stroke-opacity="0.2" stroke-width="0.5"/>
<rect x="1.5" y="1.5" width="13" height="13" rx="1.5" stroke="#66635D" stroke-opacity="0.5"/>
<rect opacity="0.3" x="2.5" y="2.5" width="11" height="11" rx="0.5" stroke="url(#paint1_linear)" stroke-linecap="round" stroke-linejoin="round"/>
<g opacity="0.2" filter="url(#filter0_f)">
<rect x="3" y="3" width="10" height="10" rx="1" fill="url(#paint2_radial)"/>
<rect x="2.75" y="2.75" width="10.5" height="10.5" rx="1.25" stroke="#66635D" stroke-opacity="0.2" stroke-width="0.5"/>
<rect x="2.5" y="2.5" width="11" height="11" rx="1.5" stroke="#84817D" stroke-opacity="0.5"/>
<rect opacity="0.2" x="3" y="3" width="10" height="10" rx="1" fill="#84817D"/>
<rect opacity="0.3" x="3.5" y="3.5" width="9" height="9" rx="0.5" stroke="url(#paint3_linear)" stroke-linecap="round" stroke-linejoin="round"/>
</g>
<g filter="url(#filter1_f)">
<rect x="9" y="12.3333" width="3" height="0.666667" rx="0.333333" fill="url(#paint4_radial)"/>
<rect x="9" y="12.3333" width="3" height="0.666667" rx="0.333333" fill="#FFFCF7" style="mix-blend-mode:color"/>
<rect x="9" y="12.3333" width="3" height="0.666667" rx="0.333333" fill="white" style="mix-blend-mode:soft-light"/>
<rect x="8.75" y="12.0833" width="3.5" height="1.16667" rx="0.583333" stroke="#84817D" stroke-opacity="0.2" stroke-width="0.5"/>
<rect x="8.75" y="12.0833" width="3.5" height="1.16667" rx="0.583333" stroke="#84817D" stroke-opacity="0.5" stroke-width="0.5"/>
<rect opacity="0.3" x="9.16667" y="12.5" width="2.66667" height="0.333333" rx="0.166667" stroke="url(#paint5_linear)" stroke-width="0.333333" stroke-linecap="round" stroke-linejoin="round"/>
</g>
<g filter="url(#filter2_f)">
<rect x="9" y="12.3333" width="3" height="0.666667" rx="0.333333" fill="url(#paint6_radial)"/>
<rect x="9" y="12.3333" width="3" height="0.666667" rx="0.333333" fill="#FFFCF7" style="mix-blend-mode:color"/>
<rect x="9" y="12.3333" width="3" height="0.666667" rx="0.333333" fill="white" style="mix-blend-mode:soft-light"/>
<rect x="9" y="12.3333" width="3" height="0.666667" rx="0.333333" fill="white" style="mix-blend-mode:soft-light"/>
<rect x="8.75" y="12.0833" width="3.5" height="1.16667" rx="0.583333" stroke="#84817D" stroke-opacity="0.2" stroke-width="0.5"/>
<rect x="8.75" y="12.0833" width="3.5" height="1.16667" rx="0.583333" stroke="#84817D" stroke-opacity="0.5" stroke-width="0.5"/>
<rect opacity="0.3" x="9.16667" y="12.5" width="2.66667" height="0.333333" rx="0.166667" stroke="url(#paint7_linear)" stroke-width="0.333333" stroke-linecap="round" stroke-linejoin="round"/>
</g>
<g filter="url(#filter3_f)">
<rect x="9" y="12" width="3" height="0.666667" rx="0.333333" fill="white" style="mix-blend-mode:soft-light"/>
</g>
<g filter="url(#filter4_f)">
<rect x="2.5" y="2.33331" width="11" height="0.666672" rx="0.333336" fill="white" style="mix-blend-mode:soft-light"/>
</g>
<path d="M12.5 7.70247C12.4083 6.61597 11.6333 6 10.5583 6C9.40833 6 8.5 6.78707 8.5 8.25C8.5 9.70651 9.38333 10.5 10.5583 10.5C11.8083 10.5 12.4417 9.61027 12.5 8.86597L11.325 8.85741C11.2667 9.2317 11.0083 9.46483 10.5833 9.46483C10.0187 9.46483 9.69167 9.05418 9.69167 8.25C9.69167 7.48859 10.0083 7.03517 10.5917 7.03517C11.0375 7.03517 11.2917 7.30466 11.325 7.70247H12.5Z" fill="#7D30E8"/>
<path d="M12.5 7.82747H12.636L12.6246 7.69196C12.5763 7.11992 12.3466 6.66237 11.9791 6.34872C11.6126 6.03597 11.1195 5.875 10.5583 5.875C9.95441 5.875 9.40597 6.08215 9.0085 6.48906C8.61083 6.89616 8.375 7.49214 8.375 8.25C8.375 9.0038 8.60407 9.59981 8.99866 10.0081C9.39332 10.4164 9.94216 10.625 10.5583 10.625C11.8801 10.625 12.5617 9.6784 12.6246 8.87574L12.6351 8.74195L12.5009 8.74097L11.3259 8.73242L11.2181 8.73163L11.2015 8.83817C11.1761 9.00099 11.1092 9.12348 11.0112 9.20579C10.9132 9.28822 10.7727 9.33983 10.5833 9.33983C10.3348 9.33983 10.1513 9.25146 10.0258 9.084C9.896 8.9109 9.81667 8.63797 9.81667 8.25C9.81667 7.88403 9.89316 7.61 10.0239 7.43071C10.1506 7.25699 10.3367 7.16017 10.5917 7.16017C10.7886 7.16017 10.9308 7.21911 11.027 7.31033C11.1238 7.40213 11.1858 7.53793 11.2004 7.71291L11.21 7.82747H11.325H12.5Z" stroke="url(#paint8_linear)" stroke-opacity="0.5" stroke-width="0.25"/>
<path d="M10.5583 6.125C11.0722 6.125 11.5041 6.27201 11.8168 6.53888C12.1005 6.78098 12.2946 7.12893 12.3599 7.57747H11.4339C11.4002 7.40163 11.3229 7.24642 11.199 7.12896C11.0483 6.98598 10.8405 6.91017 10.5917 6.91017C10.2633 6.91017 9.99939 7.04006 9.82192 7.2834C9.64851 7.52118 9.56667 7.85456 9.56667 8.25C9.56667 8.66622 9.65087 9.0007 9.82577 9.23397C10.0049 9.47288 10.2673 9.58983 10.5833 9.58983C10.8189 9.58983 11.0202 9.52487 11.1721 9.39717C11.298 9.29136 11.3823 9.14899 11.4263 8.98316L12.3584 8.98994C12.244 9.64569 11.6609 10.375 10.5583 10.375C9.9995 10.375 9.51918 10.1869 9.17842 9.83432C8.8376 9.4817 8.625 8.95271 8.625 8.25C8.625 7.54493 8.84334 7.01591 9.18734 6.66375C9.53153 6.31138 10.0123 6.125 10.5583 6.125Z" stroke="url(#paint9_linear)" stroke-width="0.25"/>
<path d="M6 4L4 6.07237L4.53333 6.625L6 5.10526L7.46667 6.625L8 6.07237L6 4Z" fill="#7D30E8"/>
<path d="M6.08994 3.9132L6 3.82L5.91006 3.9132L3.91006 5.98556L3.82628 6.07237L3.91006 6.15917L4.44339 6.7118L4.53333 6.805L4.62328 6.7118L6 5.28527L7.37672 6.7118L7.46667 6.805L7.55661 6.7118L8.08994 6.15917L8.17372 6.07237L8.08994 5.98556L6.08994 3.9132Z" stroke="url(#paint10_linear)" stroke-opacity="0.5" stroke-width="0.25"/>
<path d="M5.91006 5.01846L4.53333 6.445L4.17372 6.07237L6 4.18L7.82628 6.07237L7.46667 6.445L6.08994 5.01846L6 4.92526L5.91006 5.01846Z" stroke="url(#paint11_linear)" stroke-width="0.25"/>
<defs>
<filter id="filter0_f" x="1.5" y="1.5" width="13" height="13" filterUnits="userSpaceOnUse" color-interpolation-filters="sRGB">
<feFlood flood-opacity="0" result="BackgroundImageFix"/>
<feBlend mode="normal" in="SourceGraphic" in2="BackgroundImageFix" result="shape"/>
<feGaussianBlur stdDeviation="0.25" result="effect1_foregroundBlur"/>
</filter>
<filter id="filter1_f" x="8" y="11.3333" width="5" height="2.66667" filterUnits="userSpaceOnUse" color-interpolation-filters="sRGB">
<feFlood flood-opacity="0" result="BackgroundImageFix"/>
<feBlend mode="normal" in="SourceGraphic" in2="BackgroundImageFix" result="shape"/>
<feGaussianBlur stdDeviation="0.25" result="effect1_foregroundBlur"/>
</filter>
<filter id="filter2_f" x="8" y="11.3333" width="5" height="2.66667" filterUnits="userSpaceOnUse" color-interpolation-filters="sRGB">
<feFlood flood-opacity="0" result="BackgroundImageFix"/>
<feBlend mode="normal" in="SourceGraphic" in2="BackgroundImageFix" result="shape"/>
<feGaussianBlur stdDeviation="0.25" result="effect1_foregroundBlur"/>
</filter>
<filter id="filter3_f" x="8.75" y="11.75" width="3.5" height="1.16667" filterUnits="userSpaceOnUse" color-interpolation-filters="sRGB">
<feFlood flood-opacity="0" result="BackgroundImageFix"/>
<feBlend mode="normal" in="SourceGraphic" in2="BackgroundImageFix" result="shape"/>
<feGaussianBlur stdDeviation="0.125" result="effect1_foregroundBlur"/>
</filter>
<filter id="filter4_f" x="2" y="1.83331" width="12" height="1.66667" filterUnits="userSpaceOnUse" color-interpolation-filters="sRGB">
<feFlood flood-opacity="0" result="BackgroundImageFix"/>
<feBlend mode="normal" in="SourceGraphic" in2="BackgroundImageFix" result="shape"/>
<feGaussianBlur stdDeviation="0.25" result="effect1_foregroundBlur"/>
</filter>
<radialGradient id="paint0_radial" cx="0" cy="0" r="1" gradientUnits="userSpaceOnUse" gradientTransform="translate(8.25572 -0.279997) rotate(90) scale(28.56 35.0626)">
<stop stop-color="#F2F0EE"/>
<stop offset="0.26238" stop-color="#E5E3DF"/>
<stop offset="0.704952" stop-color="#BFBDB8"/>
<stop offset="1" stop-color="#989898"/>
</radialGradient>
<linearGradient id="paint1_linear" x1="8" y1="1.83784" x2="8" y2="14.1622" gradientUnits="userSpaceOnUse">
<stop stop-color="white"/>
<stop offset="0.0631645" stop-color="white" stop-opacity="0.235294"/>
<stop offset="0.950563" stop-color="white" stop-opacity="0.156863"/>
<stop offset="1" stop-color="white" stop-opacity="0.392157"/>
</linearGradient>
<radialGradient id="paint2_radial" cx="0" cy="0" r="1" gradientUnits="userSpaceOnUse" gradientTransform="translate(8.2131 1.1) rotate(90) scale(23.8 29.2188)">
<stop stop-color="#F2F0EE"/>
<stop offset="0.26238" stop-color="#E5E3DF"/>
<stop offset="0.704952" stop-color="#BFBDB8"/>
<stop offset="1" stop-color="#989898"/>
</radialGradient>
<linearGradient id="paint3_linear" x1="8" y1="2.86486" x2="8" y2="13.1351" gradientUnits="userSpaceOnUse">
<stop stop-color="white"/>
<stop offset="0.0631645" stop-color="white" stop-opacity="0.235294"/>
<stop offset="0.950563" stop-color="white" stop-opacity="0.156863"/>
<stop offset="1" stop-color="white" stop-opacity="0.392157"/>
</linearGradient>
<radialGradient id="paint4_radial" cx="0" cy="0" r="1" gradientUnits="userSpaceOnUse" gradientTransform="translate(10.5639 11.9788) rotate(90) scale(2.0573 11.3657)">
<stop stop-color="#A6A6A6"/>
<stop offset="0.26238" stop-color="#7B7B7B"/>
<stop offset="0.704952" stop-color="#5A5A5A"/>
<stop offset="1" stop-color="#989898"/>
</radialGradient>
<linearGradient id="paint5_linear" x1="10.5" y1="12.3243" x2="10.5" y2="13.009" gradientUnits="userSpaceOnUse">
<stop stop-color="white"/>
<stop offset="0.0631645" stop-color="white" stop-opacity="0.235294"/>
<stop offset="0.950563" stop-color="white" stop-opacity="0.156863"/>
<stop offset="1" stop-color="white" stop-opacity="0.392157"/>
</linearGradient>
<radialGradient id="paint6_radial" cx="0" cy="0" r="1" gradientUnits="userSpaceOnUse" gradientTransform="translate(10.5639 11.9788) rotate(90) scale(2.0573 11.3657)">
<stop stop-color="#A6A6A6"/>
<stop offset="0.26238" stop-color="#7B7B7B"/>
<stop offset="0.704952" stop-color="#5A5A5A"/>
<stop offset="1" stop-color="#989898"/>
</radialGradient>
<linearGradient id="paint7_linear" x1="10.5" y1="12.3243" x2="10.5" y2="13.009" gradientUnits="userSpaceOnUse">
<stop stop-color="white"/>
<stop offset="0.0631645" stop-color="white" stop-opacity="0.235294"/>
<stop offset="0.950563" stop-color="white" stop-opacity="0.156863"/>
<stop offset="1" stop-color="white" stop-opacity="0.392157"/>
</linearGradient>
<linearGradient id="paint8_linear" x1="10.5" y1="6" x2="10.5" y2="10.5" gradientUnits="userSpaceOnUse">
<stop stop-color="white" stop-opacity="0"/>
<stop offset="1" stop-color="white"/>
</linearGradient>
<linearGradient id="paint9_linear" x1="10.5" y1="6" x2="10.5" y2="10.5" gradientUnits="userSpaceOnUse">
<stop stop-color="#371566"/>
<stop offset="1" stop-color="#371566" stop-opacity="0"/>
</linearGradient>
<linearGradient id="paint10_linear" x1="6" y1="4" x2="6" y2="6.625" gradientUnits="userSpaceOnUse">
<stop stop-color="white" stop-opacity="0"/>
<stop offset="1" stop-color="white"/>
</linearGradient>
<linearGradient id="paint11_linear" x1="6" y1="4" x2="6" y2="6.625" gradientUnits="userSpaceOnUse">
<stop stop-color="#371566"/>
<stop offset="1" stop-color="#371566" stop-opacity="0"/>
</linearGradient>
</defs>
</svg>
