<svg width="48" height="48" viewBox="0 0 48 48" fill="none" xmlns="http://www.w3.org/2000/svg">
<g opacity="0.4">
<path opacity="0.4" d="M45 44H39.4737V46H45V44Z" fill="url(#paint0_radial)"/>
<path opacity="0.4" d="M3.00002 46H8.52634V44H3.00002V46Z" fill="url(#paint1_radial)"/>
<path opacity="0.4" d="M39.4737 44H8.52634V46H39.4737V44Z" fill="url(#paint2_linear)"/>
</g>
<g opacity="0.4">
<path opacity="0.4" d="M45 44H39.4737V46H45V44Z" fill="url(#paint3_radial)"/>
<path opacity="0.4" d="M3.00002 46H8.52634V44H3.00002V46Z" fill="url(#paint4_radial)"/>
<path opacity="0.4" d="M39.4737 44H8.52634V46H39.4737V44Z" fill="url(#paint5_linear)"/>
</g>
<g opacity="0.4">
<path opacity="0.4" d="M45 44H39.4737V46H45V44Z" fill="url(#paint6_radial)"/>
<path opacity="0.4" d="M3.00002 46H8.52634V44H3.00002V46Z" fill="url(#paint7_radial)"/>
<path opacity="0.4" d="M39.4737 44H8.52634V46H39.4737V44Z" fill="url(#paint8_linear)"/>
</g>
<g opacity="0.4">
<path opacity="0.4" d="M47 42H40.9474V46H47V42Z" fill="url(#paint9_radial)"/>
<path opacity="0.4" d="M1.00001 46H7.05264V42H1.00001V46Z" fill="url(#paint10_radial)"/>
<path opacity="0.4" d="M40.9474 42H7.05264V46H40.9474V42Z" fill="url(#paint11_linear)"/>
</g>
<rect x="5" y="6" width="38" height="38" rx="2" fill="url(#paint12_radial)"/>
<rect x="5" y="6" width="38" height="38" rx="2" fill="#F1EEE9" style="mix-blend-mode:color"/>
<rect x="5" y="6" width="38" height="38" rx="2" fill="white" style="mix-blend-mode:soft-light"/>
<rect x="5" y="6" width="38" height="38" rx="2" fill="white" fill-opacity="0.8" style="mix-blend-mode:soft-light"/>
<rect x="4.75" y="5.75" width="38.5" height="38.5" rx="2.25" stroke="#66635D" stroke-opacity="0.2" stroke-width="0.5"/>
<rect x="4.5" y="5.5" width="39" height="39" rx="2.5" stroke="#66635D" stroke-opacity="0.5"/>
<rect opacity="0.3" x="5.5" y="6.5" width="37" height="37" rx="1.5" stroke="url(#paint13_linear)" stroke-linecap="round" stroke-linejoin="round"/>
<g filter="url(#filter0_f)">
<rect x="8" y="9" width="32" height="32" rx="1" fill="url(#paint14_radial)"/>
<rect x="8" y="9" width="32" height="32" rx="1" fill="#BAB8B5" style="mix-blend-mode:color"/>
<rect x="8" y="9" width="32" height="32" rx="1" fill="white" style="mix-blend-mode:soft-light"/>
<rect x="8" y="9" width="32" height="32" rx="1" fill="white" fill-opacity="0.5" style="mix-blend-mode:soft-light"/>
<rect x="7.75" y="8.75" width="32.5" height="32.5" rx="1.25" stroke="#84817D" stroke-opacity="0.2" stroke-width="0.5"/>
<rect x="7.5" y="8.5" width="33" height="33" rx="1.5" stroke="#84817D" stroke-opacity="0.5"/>
<rect opacity="0.3" x="8.5" y="9.5" width="31" height="31" rx="0.5" stroke="url(#paint15_linear)" stroke-linecap="round" stroke-linejoin="round"/>
</g>
<g filter="url(#filter1_f)">
<rect x="26.625" y="37.5" width="9" height="1.875" rx="0.9375" fill="url(#paint16_radial)"/>
<rect x="26.625" y="37.5" width="9" height="1.875" rx="0.9375" fill="#FFFCF7" style="mix-blend-mode:color"/>
<rect x="26.625" y="37.5" width="9" height="1.875" rx="0.9375" fill="white" style="mix-blend-mode:soft-light"/>
<rect x="26.375" y="37.25" width="9.5" height="2.375" rx="1.1875" stroke="#84817D" stroke-opacity="0.2" stroke-width="0.5"/>
<rect x="26.125" y="37" width="10" height="2.875" rx="1.4375" stroke="#84817D" stroke-opacity="0.5"/>
<rect opacity="0.3" x="27.0938" y="37.9688" width="8.0625" height="0.9375" rx="0.46875" stroke="url(#paint17_linear)" stroke-width="0.9375" stroke-linecap="round" stroke-linejoin="round"/>
</g>
<g filter="url(#filter2_f)">
<rect x="26.625" y="36.75" width="9" height="2.4" rx="1.2" fill="url(#paint18_radial)"/>
<rect x="26.625" y="36.75" width="9" height="2.4" rx="1.2" fill="#FFFCF7" style="mix-blend-mode:color"/>
<rect x="26.625" y="36.75" width="9" height="2.4" rx="1.2" fill="white" style="mix-blend-mode:soft-light"/>
<rect x="26.625" y="36.75" width="9" height="2.4" rx="1.2" fill="white" style="mix-blend-mode:soft-light"/>
<rect x="26.375" y="36.5" width="9.5" height="2.9" rx="1.45" stroke="#84817D" stroke-opacity="0.2" stroke-width="0.5"/>
<rect x="26.125" y="36.25" width="10" height="3.4" rx="1.7" stroke="#84817D" stroke-opacity="0.5"/>
<rect opacity="0.3" x="27.125" y="37.25" width="8" height="1.4" rx="0.700001" stroke="url(#paint19_linear)" stroke-linecap="round" stroke-linejoin="round"/>
</g>
<g filter="url(#filter3_f)">
<rect x="26.625" y="37.5" width="9" height="1.05" rx="0.525002" fill="white" fill-opacity="0.6" style="mix-blend-mode:soft-light"/>
</g>
<g filter="url(#filter4_f)">
<rect x="7" y="7" width="34" height="1" rx="0.5" fill="white" style="mix-blend-mode:soft-light"/>
</g>
<path d="M37 25.1074C36.725 21.8479 34.4 20 31.175 20C27.725 20 25 22.3612 25 26.75C25 31.1195 27.65 33.5 31.175 33.5C34.925 33.5 36.825 30.8308 37 28.5979L33.475 28.5722C33.3 29.6951 32.525 30.3945 31.25 30.3945C29.5562 30.3945 28.575 29.1625 28.575 26.75C28.575 24.4658 29.525 23.1055 31.275 23.1055C32.6125 23.1055 33.375 23.914 33.475 25.1074H37Z" fill="#7D30E8"/>
<g filter="url(#filter5_f)">
<path d="M37 25.3574H37.272L37.2491 25.0864C37.1068 23.3991 36.4307 22.0583 35.356 21.1412C34.2835 20.2259 32.8348 19.75 31.175 19.75C29.3922 19.75 27.7807 20.3611 26.6149 21.5545C25.4487 22.7484 24.75 24.5028 24.75 26.75C24.75 28.9859 25.429 30.7404 26.5859 31.9373C27.7429 33.1344 29.3552 33.75 31.175 33.75C35.0685 33.75 37.0651 30.9671 37.2492 28.6174L37.2702 28.3499L37.0018 28.3479L33.4768 28.3223L33.2612 28.3207L33.228 28.5337C33.1481 29.0465 32.935 29.4434 32.6141 29.7131C32.293 29.983 31.8413 30.1445 31.25 30.1445C30.4706 30.1445 29.8808 29.8651 29.4774 29.327C29.0654 28.7776 28.825 27.928 28.825 26.75C28.825 25.6374 29.0571 24.7856 29.4707 24.2185C29.8762 23.6625 30.4733 23.3555 31.275 23.3555C31.8919 23.3555 32.3513 23.5408 32.667 23.8403C32.984 24.141 33.1799 24.5794 33.2259 25.1283L33.2451 25.3574H33.475H37Z" stroke="url(#paint20_linear)" stroke-opacity="0.5" stroke-width="0.5"/>
</g>
<g filter="url(#filter6_f)">
<path d="M31.175 20.25C32.7402 20.25 34.0665 20.698 35.0315 21.5216C35.9382 22.2954 36.5444 23.4163 36.7227 24.8574H33.6967C33.6107 24.3088 33.3838 23.831 33.0111 23.4776C32.5862 23.0745 31.9956 22.8555 31.275 22.8555C30.3267 22.8555 29.5738 23.2286 29.0668 23.9239C28.5679 24.6079 28.325 25.5784 28.325 26.75C28.325 27.9845 28.5752 28.9572 29.0773 29.6269C29.5879 30.3079 30.3357 30.6445 31.25 30.6445C31.9337 30.6445 32.507 30.4563 32.9359 30.0958C33.3141 29.7779 33.5624 29.3407 33.6811 28.8238L36.7214 28.8459C36.431 30.9037 34.6307 33.25 31.175 33.25C29.4698 33.25 27.9946 32.6754 26.9454 31.5898C25.896 30.5042 25.25 28.8837 25.25 26.75C25.25 24.6084 25.9138 22.9879 26.9726 21.9039C28.0318 20.8195 29.5078 20.25 31.175 20.25Z" stroke="url(#paint21_linear)" stroke-width="0.5"/>
</g>
<path d="M17 14L11 20.2171L12.6 21.875L17 17.3158L21.4 21.875L23 20.2171L17 14Z" fill="#7D30E8"/>
<g filter="url(#filter7_f)">
<path d="M17.1799 13.8264L17 13.64L16.8201 13.8264L10.8201 20.0435L10.6526 20.2171L10.8201 20.3907L12.4201 22.0486L12.6 22.235L12.7799 22.0486L17 17.6758L21.2201 22.0486L21.4 22.235L21.5799 22.0486L23.1799 20.3907L23.3474 20.2171L23.1799 20.0435L17.1799 13.8264Z" stroke="url(#paint22_linear)" stroke-opacity="0.5" stroke-width="0.5"/>
</g>
<g filter="url(#filter8_f)">
<path d="M16.8201 17.1422L12.6 21.515L11.3474 20.2171L17 14.36L22.6526 20.2171L21.4 21.515L17.1799 17.1422L17 16.9558L16.8201 17.1422Z" stroke="url(#paint23_linear)" stroke-width="0.5"/>
</g>
<defs>
<filter id="filter0_f" x="5" y="6" width="38" height="38" filterUnits="userSpaceOnUse" color-interpolation-filters="sRGB">
<feFlood flood-opacity="0" result="BackgroundImageFix"/>
<feBlend mode="normal" in="SourceGraphic" in2="BackgroundImageFix" result="shape"/>
<feGaussianBlur stdDeviation="1" result="effect1_foregroundBlur"/>
</filter>
<filter id="filter1_f" x="24.625" y="35.5" width="13" height="5.875" filterUnits="userSpaceOnUse" color-interpolation-filters="sRGB">
<feFlood flood-opacity="0" result="BackgroundImageFix"/>
<feBlend mode="normal" in="SourceGraphic" in2="BackgroundImageFix" result="shape"/>
<feGaussianBlur stdDeviation="0.5" result="effect1_foregroundBlur"/>
</filter>
<filter id="filter2_f" x="22.625" y="32.75" width="17" height="10.4" filterUnits="userSpaceOnUse" color-interpolation-filters="sRGB">
<feFlood flood-opacity="0" result="BackgroundImageFix"/>
<feBlend mode="normal" in="SourceGraphic" in2="BackgroundImageFix" result="shape"/>
<feGaussianBlur stdDeviation="1.5" result="effect1_foregroundBlur"/>
</filter>
<filter id="filter3_f" x="25.625" y="36.5" width="11" height="3.05" filterUnits="userSpaceOnUse" color-interpolation-filters="sRGB">
<feFlood flood-opacity="0" result="BackgroundImageFix"/>
<feBlend mode="normal" in="SourceGraphic" in2="BackgroundImageFix" result="shape"/>
<feGaussianBlur stdDeviation="0.5" result="effect1_foregroundBlur"/>
</filter>
<filter id="filter4_f" x="6" y="6" width="36" height="3" filterUnits="userSpaceOnUse" color-interpolation-filters="sRGB">
<feFlood flood-opacity="0" result="BackgroundImageFix"/>
<feBlend mode="normal" in="SourceGraphic" in2="BackgroundImageFix" result="shape"/>
<feGaussianBlur stdDeviation="0.5" result="effect1_foregroundBlur"/>
</filter>
<filter id="filter5_f" x="24" y="19" width="14.044" height="15.5" filterUnits="userSpaceOnUse" color-interpolation-filters="sRGB">
<feFlood flood-opacity="0" result="BackgroundImageFix"/>
<feBlend mode="normal" in="SourceGraphic" in2="BackgroundImageFix" result="shape"/>
<feGaussianBlur stdDeviation="0.25" result="effect1_foregroundBlur"/>
</filter>
<filter id="filter6_f" x="24" y="19" width="14" height="15.5" filterUnits="userSpaceOnUse" color-interpolation-filters="sRGB">
<feFlood flood-opacity="0" result="BackgroundImageFix"/>
<feBlend mode="normal" in="SourceGraphic" in2="BackgroundImageFix" result="shape"/>
<feGaussianBlur stdDeviation="0.5" result="effect1_foregroundBlur"/>
</filter>
<filter id="filter7_f" x="9.80513" y="12.78" width="14.3897" height="10.315" filterUnits="userSpaceOnUse" color-interpolation-filters="sRGB">
<feFlood flood-opacity="0" result="BackgroundImageFix"/>
<feBlend mode="normal" in="SourceGraphic" in2="BackgroundImageFix" result="shape"/>
<feGaussianBlur stdDeviation="0.25" result="effect1_foregroundBlur"/>
</filter>
<filter id="filter8_f" x="10" y="13" width="14" height="9.875" filterUnits="userSpaceOnUse" color-interpolation-filters="sRGB">
<feFlood flood-opacity="0" result="BackgroundImageFix"/>
<feBlend mode="normal" in="SourceGraphic" in2="BackgroundImageFix" result="shape"/>
<feGaussianBlur stdDeviation="0.5" result="effect1_foregroundBlur"/>
</filter>
<radialGradient id="paint0_radial" cx="0" cy="0" r="1" gradientUnits="userSpaceOnUse" gradientTransform="translate(39.4659 45) scale(5.53677 1)">
<stop stop-color="#181818"/>
<stop offset="1" stop-color="#181818" stop-opacity="0"/>
</radialGradient>
<radialGradient id="paint1_radial" cx="0" cy="0" r="1" gradientUnits="userSpaceOnUse" gradientTransform="translate(8.53409 45) rotate(180) scale(5.53677 1)">
<stop stop-color="#181818"/>
<stop offset="1" stop-color="#181818" stop-opacity="0"/>
</radialGradient>
<linearGradient id="paint2_linear" x1="25.1695" y1="46.0079" x2="25.1695" y2="43.9998" gradientUnits="userSpaceOnUse">
<stop stop-color="#181818" stop-opacity="0"/>
<stop offset="0.5" stop-color="#181818"/>
<stop offset="1" stop-color="#181818" stop-opacity="0"/>
</linearGradient>
<radialGradient id="paint3_radial" cx="0" cy="0" r="1" gradientUnits="userSpaceOnUse" gradientTransform="translate(39.4659 45) scale(5.53677 1)">
<stop stop-color="#181818"/>
<stop offset="1" stop-color="#181818" stop-opacity="0"/>
</radialGradient>
<radialGradient id="paint4_radial" cx="0" cy="0" r="1" gradientUnits="userSpaceOnUse" gradientTransform="translate(8.53409 45) rotate(180) scale(5.53677 1)">
<stop stop-color="#181818"/>
<stop offset="1" stop-color="#181818" stop-opacity="0"/>
</radialGradient>
<linearGradient id="paint5_linear" x1="25.1695" y1="46.0079" x2="25.1695" y2="43.9998" gradientUnits="userSpaceOnUse">
<stop stop-color="#181818" stop-opacity="0"/>
<stop offset="0.5" stop-color="#181818"/>
<stop offset="1" stop-color="#181818" stop-opacity="0"/>
</linearGradient>
<radialGradient id="paint6_radial" cx="0" cy="0" r="1" gradientUnits="userSpaceOnUse" gradientTransform="translate(39.4659 45) scale(5.53677 1)">
<stop stop-color="#181818"/>
<stop offset="1" stop-color="#181818" stop-opacity="0"/>
</radialGradient>
<radialGradient id="paint7_radial" cx="0" cy="0" r="1" gradientUnits="userSpaceOnUse" gradientTransform="translate(8.53409 45) rotate(180) scale(5.53677 1)">
<stop stop-color="#181818"/>
<stop offset="1" stop-color="#181818" stop-opacity="0"/>
</radialGradient>
<linearGradient id="paint8_linear" x1="25.1695" y1="46.0079" x2="25.1695" y2="43.9998" gradientUnits="userSpaceOnUse">
<stop stop-color="#181818" stop-opacity="0"/>
<stop offset="0.5" stop-color="#181818"/>
<stop offset="1" stop-color="#181818" stop-opacity="0"/>
</linearGradient>
<radialGradient id="paint9_radial" cx="0" cy="0" r="1" gradientUnits="userSpaceOnUse" gradientTransform="translate(40.9389 44) scale(6.06408 2)">
<stop stop-color="#181818"/>
<stop offset="1" stop-color="#181818" stop-opacity="0"/>
</radialGradient>
<radialGradient id="paint10_radial" cx="0" cy="0" r="1" gradientUnits="userSpaceOnUse" gradientTransform="translate(7.06114 44) rotate(180) scale(6.06408 2)">
<stop stop-color="#181818"/>
<stop offset="1" stop-color="#181818" stop-opacity="0"/>
</radialGradient>
<linearGradient id="paint11_linear" x1="25.2809" y1="46.0158" x2="25.2809" y2="41.9997" gradientUnits="userSpaceOnUse">
<stop stop-color="#181818" stop-opacity="0"/>
<stop offset="0.5" stop-color="#181818"/>
<stop offset="1" stop-color="#181818" stop-opacity="0"/>
</linearGradient>
<radialGradient id="paint12_radial" cx="0" cy="0" r="1" gradientUnits="userSpaceOnUse" gradientTransform="translate(24.8098 -14.2067) rotate(90) scale(117.266 143.965)">
<stop stop-color="#A6A6A6"/>
<stop offset="0.26238" stop-color="#7B7B7B"/>
<stop offset="0.704952" stop-color="#5A5A5A"/>
<stop offset="1" stop-color="#989898"/>
</radialGradient>
<linearGradient id="paint13_linear" x1="24" y1="5.48649" x2="24" y2="44.5135" gradientUnits="userSpaceOnUse">
<stop stop-color="white"/>
<stop offset="0.0631645" stop-color="white" stop-opacity="0.235294"/>
<stop offset="0.950563" stop-color="white" stop-opacity="0.156863"/>
<stop offset="1" stop-color="white" stop-opacity="0.392157"/>
</linearGradient>
<radialGradient id="paint14_radial" cx="0" cy="0" r="1" gradientUnits="userSpaceOnUse" gradientTransform="translate(24.6819 -8.01621) rotate(90) scale(98.7502 121.234)">
<stop stop-color="#A6A6A6"/>
<stop offset="0.26238" stop-color="#7B7B7B"/>
<stop offset="0.704952" stop-color="#5A5A5A"/>
<stop offset="1" stop-color="#989898"/>
</radialGradient>
<linearGradient id="paint15_linear" x1="24" y1="8.56757" x2="24" y2="41.4324" gradientUnits="userSpaceOnUse">
<stop stop-color="white"/>
<stop offset="0.0631645" stop-color="white" stop-opacity="0.235294"/>
<stop offset="0.950563" stop-color="white" stop-opacity="0.156863"/>
<stop offset="1" stop-color="white" stop-opacity="0.392157"/>
</linearGradient>
<radialGradient id="paint16_radial" cx="0" cy="0" r="1" gradientUnits="userSpaceOnUse" gradientTransform="translate(31.3168 36.503) rotate(90) scale(5.78614 34.097)">
<stop stop-color="#A6A6A6"/>
<stop offset="0.26238" stop-color="#7B7B7B"/>
<stop offset="0.704952" stop-color="#5A5A5A"/>
<stop offset="1" stop-color="#989898"/>
</radialGradient>
<linearGradient id="paint17_linear" x1="31.125" y1="37.4747" x2="31.125" y2="39.4003" gradientUnits="userSpaceOnUse">
<stop stop-color="white"/>
<stop offset="0.0631645" stop-color="white" stop-opacity="0.235294"/>
<stop offset="0.950563" stop-color="white" stop-opacity="0.156863"/>
<stop offset="1" stop-color="white" stop-opacity="0.392157"/>
</linearGradient>
<radialGradient id="paint18_radial" cx="0" cy="0" r="1" gradientUnits="userSpaceOnUse" gradientTransform="translate(31.3168 35.4738) rotate(90) scale(7.40627 34.097)">
<stop stop-color="#A6A6A6"/>
<stop offset="0.26238" stop-color="#7B7B7B"/>
<stop offset="0.704952" stop-color="#5A5A5A"/>
<stop offset="1" stop-color="#989898"/>
</radialGradient>
<linearGradient id="paint19_linear" x1="31.125" y1="36.7176" x2="31.125" y2="39.1824" gradientUnits="userSpaceOnUse">
<stop stop-color="white"/>
<stop offset="0.0631645" stop-color="white" stop-opacity="0.235294"/>
<stop offset="0.950563" stop-color="white" stop-opacity="0.156863"/>
<stop offset="1" stop-color="white" stop-opacity="0.392157"/>
</linearGradient>
<linearGradient id="paint20_linear" x1="31" y1="20" x2="31" y2="33.5" gradientUnits="userSpaceOnUse">
<stop stop-color="white" stop-opacity="0"/>
<stop offset="1" stop-color="white"/>
</linearGradient>
<linearGradient id="paint21_linear" x1="31" y1="20" x2="31" y2="33.5" gradientUnits="userSpaceOnUse">
<stop stop-color="#371566"/>
<stop offset="1" stop-color="#371566" stop-opacity="0"/>
</linearGradient>
<linearGradient id="paint22_linear" x1="17" y1="14" x2="17" y2="21.875" gradientUnits="userSpaceOnUse">
<stop stop-color="white" stop-opacity="0"/>
<stop offset="1" stop-color="white"/>
</linearGradient>
<linearGradient id="paint23_linear" x1="17" y1="14" x2="17" y2="21.875" gradientUnits="userSpaceOnUse">
<stop stop-color="#371566"/>
<stop offset="1" stop-color="#371566" stop-opacity="0"/>
</linearGradient>
</defs>
</svg>
