<svg width="64" height="64" viewBox="0 0 64 64" fill="none" xmlns="http://www.w3.org/2000/svg">
<g opacity="0.4">
<path opacity="0.4" d="M59 58H51.8947V61H59V58Z" fill="url(#paint0_radial)"/>
<path opacity="0.4" d="M5.00001 61H12.1053V58H5.00001V61Z" fill="url(#paint1_radial)"/>
<path opacity="0.4" d="M51.8947 58H12.1053V61H51.8947V58Z" fill="url(#paint2_linear)"/>
</g>
<g opacity="0.4">
<path opacity="0.4" d="M59 58H51.8947V61H59V58Z" fill="url(#paint3_radial)"/>
<path opacity="0.4" d="M5.00001 61H12.1053V58H5.00001V61Z" fill="url(#paint4_radial)"/>
<path opacity="0.4" d="M51.8947 58H12.1053V61H51.8947V58Z" fill="url(#paint5_linear)"/>
</g>
<g opacity="0.4">
<path opacity="0.4" d="M59 58H51.8947V61H59V58Z" fill="url(#paint6_radial)"/>
<path opacity="0.4" d="M5.00001 61H12.1053V58H5.00001V61Z" fill="url(#paint7_radial)"/>
<path opacity="0.4" d="M51.8947 58H12.1053V61H51.8947V58Z" fill="url(#paint8_linear)"/>
</g>
<g opacity="0.4">
<path opacity="0.4" d="M62.0001 57H54.1053V62H62.0001V57Z" fill="url(#paint9_radial)"/>
<path opacity="0.4" d="M1.99999 62H9.89474V57H1.99999V62Z" fill="url(#paint10_radial)"/>
<path opacity="0.4" d="M54.1054 57H9.89474V62H54.1054V57Z" fill="url(#paint11_linear)"/>
</g>
<rect x="7" y="9" width="50" height="50" rx="3" fill="url(#paint12_radial)"/>
<rect x="6.75" y="8.75" width="50.5" height="50.5" rx="3.25" stroke="#66635D" stroke-opacity="0.2" stroke-width="0.5"/>
<rect x="6.5" y="8.5" width="51" height="51" rx="3.5" stroke="#66635D" stroke-opacity="0.5"/>
<rect opacity="0.3" x="7.5" y="9.5" width="49" height="49" rx="2.5" stroke="url(#paint13_linear)" stroke-linecap="round" stroke-linejoin="round"/>
<g opacity="0.5" filter="url(#filter0_f)">
<rect x="10" y="12" width="44" height="44" rx="2" fill="url(#paint14_radial)"/>
<rect x="9.75" y="11.75" width="44.5" height="44.5" rx="2.25" stroke="#84817D" stroke-opacity="0.2" stroke-width="0.5"/>
<rect x="9.5" y="11.5" width="45" height="45" rx="1.5" stroke="#84817D" stroke-opacity="0.5"/>
<rect opacity="0.2" x="10" y="12" width="44" height="44" rx="2" fill="#84817D"/>
<rect opacity="0.3" x="10.5" y="12.5" width="43" height="43" rx="0.5" stroke="url(#paint15_linear)" stroke-linecap="round" stroke-linejoin="round"/>
</g>
<g filter="url(#filter1_f)">
<rect x="35.5" y="50" width="12" height="2.5" rx="1.25" fill="url(#paint16_radial)"/>
<rect x="35.5" y="50" width="12" height="2.5" rx="1.25" fill="#FFFCF7" style="mix-blend-mode:color"/>
<rect x="35.5" y="50" width="12" height="2.5" rx="1.25" fill="white" style="mix-blend-mode:soft-light"/>
<rect x="35.25" y="49.75" width="12.5" height="3" rx="1.5" stroke="#84817D" stroke-opacity="0.2" stroke-width="0.5"/>
<rect x="35" y="49.5" width="13" height="3.5" rx="1.75" stroke="#84817D" stroke-opacity="0.5"/>
<rect opacity="0.3" x="36" y="50.5" width="11" height="1.5" rx="0.75" stroke="url(#paint17_linear)" stroke-linecap="round" stroke-linejoin="round"/>
</g>
<g filter="url(#filter2_f)">
<rect x="35.5" y="49" width="12" height="3.2" rx="1.6" fill="url(#paint18_radial)"/>
<rect x="35.5" y="49" width="12" height="3.2" rx="1.6" fill="#FFFCF7" style="mix-blend-mode:color"/>
<rect x="35.5" y="49" width="12" height="3.2" rx="1.6" fill="white" style="mix-blend-mode:soft-light"/>
<rect x="35.5" y="49" width="12" height="3.2" rx="1.6" fill="white" style="mix-blend-mode:soft-light"/>
<rect x="35.25" y="48.75" width="12.5" height="3.7" rx="1.85" stroke="#84817D" stroke-opacity="0.2" stroke-width="0.5"/>
<rect x="35" y="48.5" width="13" height="4.2" rx="2.1" stroke="#84817D" stroke-opacity="0.5"/>
<rect opacity="0.3" x="36" y="49.5" width="11" height="2.2" rx="1.1" stroke="url(#paint19_linear)" stroke-linecap="round" stroke-linejoin="round"/>
</g>
<g filter="url(#filter3_f)">
<rect x="35.5" y="50" width="12" height="1.40001" rx="0.700003" fill="white" fill-opacity="0.6" style="mix-blend-mode:soft-light"/>
</g>
<g filter="url(#filter4_f)">
<rect x="9.5" y="10.5" width="45" height="1" rx="0.5" fill="white" style="mix-blend-mode:soft-light"/>
</g>
<path d="M49 33.8099C48.6333 29.4639 45.5333 27 41.2333 27C36.6333 27 33 30.1483 33 36C33 41.826 36.5333 45 41.2333 45C46.2333 45 48.7667 41.4411 49 38.4639L44.3 38.4297C44.0667 39.9268 43.0333 40.8593 41.3333 40.8593C39.075 40.8593 37.7667 39.2167 37.7667 36C37.7667 32.9544 39.0333 31.1407 41.3667 31.1407C43.15 31.1407 44.1667 32.2186 44.3 33.8099H49Z" fill="#7D30E8"/>
<g filter="url(#filter5_f)">
<path d="M49 34.3099H49.544L49.4982 33.7679C49.3052 31.4797 48.3864 29.6495 46.9162 28.3949C45.4504 27.1439 43.4779 26.5 41.2333 26.5C38.8176 26.5 36.6239 27.3286 35.034 28.9562C33.4433 30.5847 32.5 32.9686 32.5 36C32.5 39.0152 33.4163 41.3992 34.9947 43.0323C36.5733 44.6655 38.7687 45.5 41.2333 45.5C46.5203 45.5 49.2468 41.7136 49.4985 38.5029L49.5404 37.9678L49.0036 37.9639L44.3036 37.9297L43.8724 37.9265L43.806 38.3527C43.7045 39.004 43.4366 39.4939 43.0449 39.8232C42.6527 40.1529 42.0909 40.3593 41.3333 40.3593C40.3391 40.3593 39.6054 40.0058 39.1032 39.336C38.584 38.6436 38.2667 37.5519 38.2667 36C38.2667 34.5361 38.5726 33.44 39.0956 32.7229C39.6024 32.028 40.3467 31.6407 41.3667 31.6407C42.1546 31.6407 42.7233 31.8764 43.108 32.2413C43.4951 32.6085 43.7431 33.1517 43.8017 33.8516L43.8401 34.3099H44.3H49Z" stroke="url(#paint20_linear)" stroke-opacity="0.5"/>
</g>
<g filter="url(#filter6_f)">
<path d="M41.2333 27.5C43.2888 27.5 45.0163 28.088 46.2671 29.1555C47.4018 30.1239 48.1786 31.5157 48.4397 33.3099H44.7357C44.6007 32.6065 44.2915 31.9857 43.7962 31.5158C43.1933 30.9439 42.3621 30.6407 41.3667 30.6407C40.0533 30.6407 38.9976 31.1602 38.2877 32.1336C37.594 33.0847 37.2667 34.4182 37.2667 36C37.2667 37.6649 37.6035 39.0028 38.3031 39.9359C39.0196 40.8915 40.0692 41.3593 41.3333 41.3593C42.2757 41.3593 43.0807 41.0995 43.6884 40.5887C44.1919 40.1655 44.529 39.5959 44.705 38.9326L48.4337 38.9598C47.9761 41.5828 45.6436 44.5 41.2333 44.5C38.998 44.5 37.0767 43.7475 35.7137 42.3373C34.3504 40.9268 33.5 38.8108 33.5 36C33.5 33.1797 34.3734 31.0636 35.7493 29.655C37.1261 28.2455 39.049 27.5 41.2333 27.5Z" stroke="url(#paint21_linear)"/>
</g>
<path d="M23 19L15 27.2895L17.1333 29.5L23 23.4211L28.8667 29.5L31 27.2895L23 19Z" fill="#7D30E8"/>
<g filter="url(#filter7_f)">
<path d="M23.3598 18.6528L23 18.28L22.6402 18.6528L14.6402 26.9423L14.3051 27.2895L14.6402 27.6367L16.7736 29.8472L17.1333 30.22L17.4931 29.8472L23 24.1411L28.5069 29.8472L28.8667 30.22L29.2264 29.8472L31.3598 27.6367L31.6949 27.2895L31.3598 26.9423L23.3598 18.6528Z" stroke="url(#paint22_linear)" stroke-opacity="0.5"/>
</g>
<g filter="url(#filter8_f)">
<path d="M22.6402 23.0738L17.1333 28.78L15.6949 27.2895L23 19.72L30.3051 27.2895L28.8667 28.78L23.3598 23.0738L23 22.701L22.6402 23.0738Z" stroke="url(#paint23_linear)"/>
</g>
<defs>
<filter id="filter0_f" x="6" y="8" width="52" height="52" filterUnits="userSpaceOnUse" color-interpolation-filters="sRGB">
<feFlood flood-opacity="0" result="BackgroundImageFix"/>
<feBlend mode="normal" in="SourceGraphic" in2="BackgroundImageFix" result="shape"/>
<feGaussianBlur stdDeviation="1.5" result="effect1_foregroundBlur"/>
</filter>
<filter id="filter1_f" x="33.5" y="48" width="16" height="6.5" filterUnits="userSpaceOnUse" color-interpolation-filters="sRGB">
<feFlood flood-opacity="0" result="BackgroundImageFix"/>
<feBlend mode="normal" in="SourceGraphic" in2="BackgroundImageFix" result="shape"/>
<feGaussianBlur stdDeviation="0.5" result="effect1_foregroundBlur"/>
</filter>
<filter id="filter2_f" x="31.5" y="45" width="20" height="11.2" filterUnits="userSpaceOnUse" color-interpolation-filters="sRGB">
<feFlood flood-opacity="0" result="BackgroundImageFix"/>
<feBlend mode="normal" in="SourceGraphic" in2="BackgroundImageFix" result="shape"/>
<feGaussianBlur stdDeviation="1.5" result="effect1_foregroundBlur"/>
</filter>
<filter id="filter3_f" x="34.5" y="49" width="14" height="3.40001" filterUnits="userSpaceOnUse" color-interpolation-filters="sRGB">
<feFlood flood-opacity="0" result="BackgroundImageFix"/>
<feBlend mode="normal" in="SourceGraphic" in2="BackgroundImageFix" result="shape"/>
<feGaussianBlur stdDeviation="0.5" result="effect1_foregroundBlur"/>
</filter>
<filter id="filter4_f" x="8.5" y="9.5" width="47" height="3" filterUnits="userSpaceOnUse" color-interpolation-filters="sRGB">
<feFlood flood-opacity="0" result="BackgroundImageFix"/>
<feBlend mode="normal" in="SourceGraphic" in2="BackgroundImageFix" result="shape"/>
<feGaussianBlur stdDeviation="0.5" result="effect1_foregroundBlur"/>
</filter>
<filter id="filter5_f" x="31" y="25" width="20.0879" height="22" filterUnits="userSpaceOnUse" color-interpolation-filters="sRGB">
<feFlood flood-opacity="0" result="BackgroundImageFix"/>
<feBlend mode="normal" in="SourceGraphic" in2="BackgroundImageFix" result="shape"/>
<feGaussianBlur stdDeviation="0.5" result="effect1_foregroundBlur"/>
</filter>
<filter id="filter6_f" x="31" y="25" width="20" height="22" filterUnits="userSpaceOnUse" color-interpolation-filters="sRGB">
<feFlood flood-opacity="0" result="BackgroundImageFix"/>
<feBlend mode="normal" in="SourceGraphic" in2="BackgroundImageFix" result="shape"/>
<feGaussianBlur stdDeviation="1" result="effect1_foregroundBlur"/>
</filter>
<filter id="filter7_f" x="12.6103" y="16.56" width="20.7795" height="15.3801" filterUnits="userSpaceOnUse" color-interpolation-filters="sRGB">
<feFlood flood-opacity="0" result="BackgroundImageFix"/>
<feBlend mode="normal" in="SourceGraphic" in2="BackgroundImageFix" result="shape"/>
<feGaussianBlur stdDeviation="0.5" result="effect1_foregroundBlur"/>
</filter>
<filter id="filter8_f" x="13" y="17" width="20" height="14.5" filterUnits="userSpaceOnUse" color-interpolation-filters="sRGB">
<feFlood flood-opacity="0" result="BackgroundImageFix"/>
<feBlend mode="normal" in="SourceGraphic" in2="BackgroundImageFix" result="shape"/>
<feGaussianBlur stdDeviation="1" result="effect1_foregroundBlur"/>
</filter>
<radialGradient id="paint0_radial" cx="0" cy="0" r="1" gradientUnits="userSpaceOnUse" gradientTransform="translate(51.8847 59.5) scale(7.11871 1.5)">
<stop stop-color="#181818"/>
<stop offset="1" stop-color="#181818" stop-opacity="0"/>
</radialGradient>
<radialGradient id="paint1_radial" cx="0" cy="0" r="1" gradientUnits="userSpaceOnUse" gradientTransform="translate(12.1152 59.5) rotate(180) scale(7.11871 1.5)">
<stop stop-color="#181818"/>
<stop offset="1" stop-color="#181818" stop-opacity="0"/>
</radialGradient>
<linearGradient id="paint2_linear" x1="33.5036" y1="61.0119" x2="33.5036" y2="57.9998" gradientUnits="userSpaceOnUse">
<stop stop-color="#181818" stop-opacity="0"/>
<stop offset="0.5" stop-color="#181818"/>
<stop offset="1" stop-color="#181818" stop-opacity="0"/>
</linearGradient>
<radialGradient id="paint3_radial" cx="0" cy="0" r="1" gradientUnits="userSpaceOnUse" gradientTransform="translate(51.8847 59.5) scale(7.11871 1.5)">
<stop stop-color="#181818"/>
<stop offset="1" stop-color="#181818" stop-opacity="0"/>
</radialGradient>
<radialGradient id="paint4_radial" cx="0" cy="0" r="1" gradientUnits="userSpaceOnUse" gradientTransform="translate(12.1152 59.5) rotate(180) scale(7.11871 1.5)">
<stop stop-color="#181818"/>
<stop offset="1" stop-color="#181818" stop-opacity="0"/>
</radialGradient>
<linearGradient id="paint5_linear" x1="33.5036" y1="61.0119" x2="33.5036" y2="57.9998" gradientUnits="userSpaceOnUse">
<stop stop-color="#181818" stop-opacity="0"/>
<stop offset="0.5" stop-color="#181818"/>
<stop offset="1" stop-color="#181818" stop-opacity="0"/>
</linearGradient>
<radialGradient id="paint6_radial" cx="0" cy="0" r="1" gradientUnits="userSpaceOnUse" gradientTransform="translate(51.8847 59.5) scale(7.11871 1.5)">
<stop stop-color="#181818"/>
<stop offset="1" stop-color="#181818" stop-opacity="0"/>
</radialGradient>
<radialGradient id="paint7_radial" cx="0" cy="0" r="1" gradientUnits="userSpaceOnUse" gradientTransform="translate(12.1152 59.5) rotate(180) scale(7.11871 1.5)">
<stop stop-color="#181818"/>
<stop offset="1" stop-color="#181818" stop-opacity="0"/>
</radialGradient>
<linearGradient id="paint8_linear" x1="33.5036" y1="61.0119" x2="33.5036" y2="57.9998" gradientUnits="userSpaceOnUse">
<stop stop-color="#181818" stop-opacity="0"/>
<stop offset="0.5" stop-color="#181818"/>
<stop offset="1" stop-color="#181818" stop-opacity="0"/>
</linearGradient>
<radialGradient id="paint9_radial" cx="0" cy="0" r="1" gradientUnits="userSpaceOnUse" gradientTransform="translate(54.0943 59.5) scale(7.90969 2.5)">
<stop stop-color="#181818"/>
<stop offset="1" stop-color="#181818" stop-opacity="0"/>
</radialGradient>
<radialGradient id="paint10_radial" cx="0" cy="0" r="1" gradientUnits="userSpaceOnUse" gradientTransform="translate(9.90583 59.5) rotate(180) scale(7.90969 2.5)">
<stop stop-color="#181818"/>
<stop offset="1" stop-color="#181818" stop-opacity="0"/>
</radialGradient>
<linearGradient id="paint11_linear" x1="33.6707" y1="62.0198" x2="33.6707" y2="56.9996" gradientUnits="userSpaceOnUse">
<stop stop-color="#181818" stop-opacity="0"/>
<stop offset="0.5" stop-color="#181818"/>
<stop offset="1" stop-color="#181818" stop-opacity="0"/>
</linearGradient>
<radialGradient id="paint12_radial" cx="0" cy="0" r="1" gradientUnits="userSpaceOnUse" gradientTransform="translate(33.0655 -0.499989) rotate(90) scale(119 146.094)">
<stop stop-color="#F2F0EE"/>
<stop offset="0.26238" stop-color="#E5E3DF"/>
<stop offset="0.704952" stop-color="#BFBDB8"/>
<stop offset="1" stop-color="#989898"/>
</radialGradient>
<linearGradient id="paint13_linear" x1="32" y1="8.32432" x2="32" y2="59.6757" gradientUnits="userSpaceOnUse">
<stop stop-color="white"/>
<stop offset="0.0631645" stop-color="white" stop-opacity="0.235294"/>
<stop offset="0.950563" stop-color="white" stop-opacity="0.156863"/>
<stop offset="1" stop-color="white" stop-opacity="0.392157"/>
</linearGradient>
<radialGradient id="paint14_radial" cx="0" cy="0" r="1" gradientUnits="userSpaceOnUse" gradientTransform="translate(32.9376 3.64001) rotate(90) scale(104.72 128.563)">
<stop stop-color="#F2F0EE"/>
<stop offset="0.26238" stop-color="#E5E3DF"/>
<stop offset="0.704952" stop-color="#BFBDB8"/>
<stop offset="1" stop-color="#989898"/>
</radialGradient>
<linearGradient id="paint15_linear" x1="32" y1="11.4054" x2="32" y2="56.5946" gradientUnits="userSpaceOnUse">
<stop stop-color="white"/>
<stop offset="0.0631645" stop-color="white" stop-opacity="0.235294"/>
<stop offset="0.950563" stop-color="white" stop-opacity="0.156863"/>
<stop offset="1" stop-color="white" stop-opacity="0.392157"/>
</linearGradient>
<radialGradient id="paint16_radial" cx="0" cy="0" r="1" gradientUnits="userSpaceOnUse" gradientTransform="translate(41.7557 48.6706) rotate(90) scale(7.71486 45.4626)">
<stop stop-color="#A6A6A6"/>
<stop offset="0.26238" stop-color="#7B7B7B"/>
<stop offset="0.704952" stop-color="#5A5A5A"/>
<stop offset="1" stop-color="#989898"/>
</radialGradient>
<linearGradient id="paint17_linear" x1="41.5" y1="49.9662" x2="41.5" y2="52.5338" gradientUnits="userSpaceOnUse">
<stop stop-color="white"/>
<stop offset="0.0631645" stop-color="white" stop-opacity="0.235294"/>
<stop offset="0.950563" stop-color="white" stop-opacity="0.156863"/>
<stop offset="1" stop-color="white" stop-opacity="0.392157"/>
</linearGradient>
<radialGradient id="paint18_radial" cx="0" cy="0" r="1" gradientUnits="userSpaceOnUse" gradientTransform="translate(41.7557 47.2984) rotate(90) scale(9.87502 45.4626)">
<stop stop-color="#A6A6A6"/>
<stop offset="0.26238" stop-color="#7B7B7B"/>
<stop offset="0.704952" stop-color="#5A5A5A"/>
<stop offset="1" stop-color="#989898"/>
</radialGradient>
<linearGradient id="paint19_linear" x1="41.5" y1="48.9568" x2="41.5" y2="52.2432" gradientUnits="userSpaceOnUse">
<stop stop-color="white"/>
<stop offset="0.0631645" stop-color="white" stop-opacity="0.235294"/>
<stop offset="0.950563" stop-color="white" stop-opacity="0.156863"/>
<stop offset="1" stop-color="white" stop-opacity="0.392157"/>
</linearGradient>
<linearGradient id="paint20_linear" x1="41" y1="27" x2="41" y2="45" gradientUnits="userSpaceOnUse">
<stop stop-color="white" stop-opacity="0"/>
<stop offset="1" stop-color="white"/>
</linearGradient>
<linearGradient id="paint21_linear" x1="41" y1="27" x2="41" y2="45" gradientUnits="userSpaceOnUse">
<stop stop-color="#371566"/>
<stop offset="1" stop-color="#371566" stop-opacity="0"/>
</linearGradient>
<linearGradient id="paint22_linear" x1="23" y1="19" x2="23" y2="29.5" gradientUnits="userSpaceOnUse">
<stop stop-color="white" stop-opacity="0"/>
<stop offset="1" stop-color="white"/>
</linearGradient>
<linearGradient id="paint23_linear" x1="23" y1="19" x2="23" y2="29.5" gradientUnits="userSpaceOnUse">
<stop stop-color="#371566"/>
<stop offset="1" stop-color="#371566" stop-opacity="0"/>
</linearGradient>
</defs>
</svg>
