<svg width="16" height="16" viewBox="0 0 16 16" fill="none" xmlns="http://www.w3.org/2000/svg">
<path fill-rule="evenodd" clip-rule="evenodd" d="M4.06065 3.64645C3.86538 3.45118 3.5488 3.45118 3.35354 3.64645C3.15828 3.84171 3.15828 4.15829 3.35354 4.35355L11.6464 12.6464C11.8417 12.8417 12.1583 12.8417 12.3535 12.6464C12.5488 12.4512 12.5488 12.1346 12.3535 11.9393L11.235 10.8208C12.0253 10.26 12.689 9.59515 13.1678 9.05178C13.7049 8.44233 13.7049 7.55767 13.1678 6.94822C12.1234 5.7631 10.2 4 7.99999 4C7.01474 4 6.08496 4.35361 5.26475 4.85055L4.06065 3.64645ZM5.99622 5.58202L6.80804 6.39384C7.14091 6.1464 7.55335 6 7.99999 6C9.10456 6 9.99999 6.89543 9.99999 8C9.99999 8.44664 9.85358 8.85908 9.60615 9.19195L10.5164 10.1022C11.2819 9.58416 11.9395 8.93316 12.4176 8.39062C12.6217 8.15904 12.6217 7.84096 12.4176 7.60938C11.9286 7.05448 11.2518 6.38612 10.4639 5.86262C9.67158 5.33623 8.83327 5 7.99999 5C7.32636 5 6.64945 5.21973 5.99622 5.58202ZM4.07868 7.07869C3.89731 7.26124 3.73116 7.44056 3.58238 7.60938C3.3783 7.84096 3.3783 8.15904 3.58238 8.39062C4.0714 8.94553 4.74814 9.61388 5.53609 10.1374C6.32839 10.6638 7.16671 11 7.99999 11L8.90333 11.9033C8.6087 11.9657 8.30704 12 7.99999 12C5.79999 12 3.87654 10.2369 2.83214 9.05178C2.29505 8.44233 2.29505 7.55767 2.83214 6.94822C2.99206 6.76676 3.17259 6.57173 3.37157 6.37157L4.07868 7.07869Z" fill="#666666"/>
</svg>
