<svg width="16" height="16" viewBox="0 0 16 16" fill="none" xmlns="http://www.w3.org/2000/svg">
<path fill-rule="evenodd" clip-rule="evenodd" d="M3 4.5C3 5.32843 3.67157 6 4.5 6H6V4.5C6 3.67157 5.32843 3 4.5 3C3.67157 3 3 3.67157 3 4.5ZM7 7V4.5C7 3.11929 5.88071 2 4.5 2C3.11929 2 2 3.11929 2 4.5C2 5.88071 3.11929 7 4.5 7H7Z" fill="#666666"/>
<path fill-rule="evenodd" clip-rule="evenodd" d="M3 11.5C3 10.6716 3.67157 10 4.5 10H6V11.5C6 12.3284 5.32843 13 4.5 13C3.67157 13 3 12.3284 3 11.5ZM7 9V11.5C7 12.8807 5.88071 14 4.5 14C3.11929 14 2 12.8807 2 11.5C2 10.1193 3.11929 9 4.5 9H7Z" fill="#666666"/>
<path fill-rule="evenodd" clip-rule="evenodd" d="M13 4.5C13 5.32843 12.3284 6 11.5 6H10V4.5C10 3.67157 10.6716 3 11.5 3C12.3284 3 13 3.67157 13 4.5ZM9 7V4.5C9 3.11929 10.1193 2 11.5 2C12.8807 2 14 3.11929 14 4.5C14 5.88071 12.8807 7 11.5 7H9Z" fill="#666666"/>
<path fill-rule="evenodd" clip-rule="evenodd" d="M13 11.5C13 10.6716 12.3284 10 11.5 10H10V11.5C10 12.3284 10.6716 13 11.5 13C12.3284 13 13 12.3284 13 11.5ZM9 9V11.5C9 12.8807 10.1193 14 11.5 14C12.8807 14 14 12.8807 14 11.5C14 10.1193 12.8807 9 11.5 9H9Z" fill="#666666"/>
<rect x="6" y="6" width="1" height="4" fill="#666666"/>
<rect x="6" y="6" width="4" height="1" fill="#666666"/>
<rect x="6" y="9" width="4" height="1" fill="#666666"/>
<rect x="9" y="6" width="1" height="4" fill="#666666"/>
</svg>
