<svg width="16" height="16" viewBox="0 0 16 16" fill="none" xmlns="http://www.w3.org/2000/svg">
<path d="M7.99999 10C9.10456 10 9.99999 9.10457 9.99999 8C9.99999 6.89543 9.10456 6 7.99999 6C6.89542 6 5.99999 6.89543 5.99999 8C5.99999 9.10457 6.89542 10 7.99999 10Z" fill="#666666"/>
<path fill-rule="evenodd" clip-rule="evenodd" d="M13.1678 6.94822C13.7049 7.55767 13.7049 8.44233 13.1678 9.05178C12.1234 10.2369 10.2 12 7.99999 12C5.79999 12 3.87654 10.2369 2.83214 9.05178C2.29505 8.44233 2.29505 7.55767 2.83214 6.94822C3.87654 5.7631 5.79999 4 7.99999 4C10.2 4 12.1234 5.7631 13.1678 6.94822ZM12.4176 8.39062C11.9286 8.94552 11.2518 9.61388 10.4639 10.1374C9.67158 10.6638 8.83327 11 7.99999 11C7.16671 11 6.32839 10.6638 5.53609 10.1374C4.74814 9.61388 4.0714 8.94552 3.58238 8.39062C3.3783 8.15904 3.3783 7.84096 3.58238 7.60938C4.0714 7.05448 4.74814 6.38612 5.53609 5.86262C6.32839 5.33623 7.16671 5 7.99999 5C8.83327 5 9.67158 5.33623 10.4639 5.86262C11.2518 6.38612 11.9286 7.05448 12.4176 7.60938C12.6217 7.84096 12.6217 8.15904 12.4176 8.39062Z" fill="#666666"/>
</svg>
