<svg width="16" height="16" viewBox="0 0 16 16" fill="none" xmlns="http://www.w3.org/2000/svg">
<path fill-rule="evenodd" clip-rule="evenodd" d="M3 7C2.44772 7 2 7.44772 2 8V14C2 14.5523 2.44772 15 3 15H13C13.5523 15 14 14.5523 14 14V8C14 7.44772 13.5523 7 13 7H3ZM5 12C5.55228 12 6 11.5523 6 11C6 10.4477 5.55228 10 5 10C4.44772 10 4 10.4477 4 11C4 11.5523 4.44772 12 5 12ZM9 11C9 11.5523 8.55228 12 8 12C7.44772 12 7 11.5523 7 11C7 10.4477 7.44772 10 8 10C8.55228 10 9 10.4477 9 11ZM11 12C11.5523 12 12 11.5523 12 11C12 10.4477 11.5523 10 11 10C10.4477 10 10 10.4477 10 11C10 11.5523 10.4477 12 11 12Z" fill="#666666"/>
<path fill-rule="evenodd" clip-rule="evenodd" d="M7 1H9C10.6569 1 12 2.34315 12 4V7C12 8.65685 10.6569 10 9 10H7C5.34315 10 4 8.65685 4 7V4C4 2.34315 5.34315 1 7 1ZM7 2C5.89543 2 5 2.89543 5 4V7C5 8.10457 5.89543 9 7 9H9C10.1046 9 11 8.10457 11 7V4C11 2.89543 10.1046 2 9 2H7Z" fill="#666666"/>
</svg>
