<svg width="16" height="16" viewBox="0 0 16 16" fill="none" xmlns="http://www.w3.org/2000/svg">
<path fill-rule="evenodd" clip-rule="evenodd" d="M14 11.5C14 12.1377 13.7613 12.7196 13.3683 13.1612L12.6592 12.4521C12.8721 12.1931 13 11.8615 13 11.5C13 10.6716 12.3284 10 11.5 10H10.2071L9 8.79289V7H7.20711L6 5.79289V4.5C6 3.67157 5.32843 3 4.5 3C4.13853 3 3.80692 3.12786 3.54793 3.34082L2.8388 2.6317C3.28044 2.23873 3.86234 2 4.5 2C5.88071 2 7 3.11929 7 4.5V6H9V4.5C9 3.11929 10.1193 2 11.5 2C12.8807 2 14 3.11929 14 4.5C14 5.88071 12.8807 7 11.5 7H10V9H11.5C12.8807 9 14 10.1193 14 11.5ZM5.29289 9H4.5C3.11929 9 2 10.1193 2 11.5C2 12.8807 3.11929 14 4.5 14C5.88071 14 7 12.8807 7 11.5V10.7071L5.29289 9ZM6 10V11.5C6 12.3284 5.32843 13 4.5 13C3.67157 13 3 12.3284 3 11.5C3 10.6716 3.67157 10 4.5 10H6ZM10 6H11.5C12.3284 6 13 5.32843 13 4.5C13 3.67157 12.3284 3 11.5 3C10.6716 3 10 3.67157 10 4.5V6Z" fill="#666666"/>
<path fill-rule="evenodd" clip-rule="evenodd" d="M14.1465 15.3536L0.646454 1.85356L1.35356 1.14645L14.8536 14.6465L14.1465 15.3536Z" fill="#666666"/>
</svg>
