<svg width="16" height="16" viewBox="0 0 16 16" fill="none" xmlns="http://www.w3.org/2000/svg">
<path fill-rule="evenodd" clip-rule="evenodd" d="M7 1H9C10.6569 1 12 2.34315 12 4V7H13C13.5523 7 14 7.44772 14 8V13.7929L11.8031 11.596C11.9268 11.4295 12 11.2233 12 11C12 10.4477 11.5523 10 11 10C10.7767 10 10.5705 10.0732 10.404 10.1969L7.20711 7H11V4C11 2.89543 10.1046 2 9 2H7C5.89543 2 5 2.89543 5 4V4.79289L4.00659 3.79949C4.10976 2.23612 5.41053 1 7 1ZM3.29289 7H3C2.44772 7 2 7.44772 2 8V14C2 14.5523 2.44772 15 3 15H11.2929L8.25902 11.9661C8.17641 11.9882 8.08958 12 8 12C7.44772 12 7 11.5523 7 11C7 10.9104 7.01178 10.8236 7.03387 10.741L3.29289 7ZM5 12C5.55228 12 6 11.5523 6 11C6 10.4477 5.55228 10 5 10C4.44772 10 4 10.4477 4 11C4 11.5523 4.44772 12 5 12Z" fill="#666666"/>
<path fill-rule="evenodd" clip-rule="evenodd" d="M14.5 15C14.3047 15.1953 13.9882 15.1953 13.7929 15L1.00001 2.20711C0.804745 2.01185 0.804745 1.69527 1.00001 1.50001V1.50001C1.19527 1.30475 1.51185 1.30475 1.70711 1.50001L14.5 14.2929C14.6953 14.4882 14.6953 14.8047 14.5 15V15Z" fill="#666666"/>
</svg>
