<svg width="16" height="16" viewBox="0 0 16 16" fill="none" xmlns="http://www.w3.org/2000/svg">
<path fill-rule="evenodd" clip-rule="evenodd" d="M8 13C10.7614 13 13 10.7614 13 8C13 5.23858 10.7614 3 8 3C5.23858 3 3 5.23858 3 8C3 10.7614 5.23858 13 8 13ZM8 15C11.866 15 15 11.866 15 8C15 4.13401 11.866 1 8 1C4.13401 1 1 4.13401 1 8C1 11.866 4.13401 15 8 15Z" fill="#666666"/>
<rect x="7" y="5" width="2" height="6" rx="1" fill="#666666"/>
<rect x="11" y="7" width="2" height="6" rx="1" transform="rotate(90 11 7)" fill="#666666"/>
<rect x="11.0027" y="12.4169" width="2" height="4.93179" rx="1" transform="rotate(-45 11.0027 12.4169)" fill="#666666"/>
</svg>
