<svg width="16" height="16" viewBox="0 0 16 16" fill="none" xmlns="http://www.w3.org/2000/svg">
<path fill-rule="evenodd" clip-rule="evenodd" d="M5 4.46447L7.53553 7H9V8.46447L11.5355 11H12C12.5523 11 13 11.4477 13 12C13 12.1372 12.9724 12.2679 12.9224 12.3869L14.3722 13.8367C14.7657 13.3292 15 12.6919 15 12C15 10.3431 13.6569 9 12 9H11V7H12C13.6569 7 15 5.65685 15 4C15 2.34315 13.6569 1 12 1C10.3431 1 9 2.34315 9 4V5H7V4C7 2.34315 5.65685 1 4 1C3.30807 1 2.67084 1.23425 2.16331 1.62778L3.61312 3.07759C3.73213 3.02761 3.86284 3 4 3C4.55228 3 5 3.44772 5 4V4.46447ZM2.74075 9.27629C1.71296 9.75226 1 10.7929 1 12C1 13.6569 2.34315 15 4 15C5.20713 15 6.24774 14.287 6.72371 13.2592L5 11.5355V12C5 12.5523 4.55228 13 4 13C3.44772 13 3 12.5523 3 12C3 11.4477 3.44772 11 4 11H4.46447L2.74075 9.27629ZM11 4V5H12C12.5523 5 13 4.55228 13 4C13 3.44772 12.5523 3 12 3C11.4477 3 11 3.44772 11 4Z" fill="#666666"/>
<path fill-rule="evenodd" clip-rule="evenodd" d="M5 4.46447L7.53553 7H9V8.46447L11.5355 11H12C12.5523 11 13 11.4477 13 12C13 12.1372 12.9724 12.2679 12.9224 12.3869L14.3722 13.8367C14.7657 13.3292 15 12.6919 15 12C15 10.3431 13.6569 9 12 9H11V7H12C13.6569 7 15 5.65685 15 4C15 2.34315 13.6569 1 12 1C10.3431 1 9 2.34315 9 4V5H7V4C7 2.34315 5.65685 1 4 1C3.30807 1 2.67084 1.23425 2.16331 1.62778L3.61312 3.07759C3.73213 3.02761 3.86284 3 4 3C4.55228 3 5 3.44772 5 4V4.46447ZM11 4V5H12C12.5523 5 13 4.55228 13 4C13 3.44772 12.5523 3 12 3C11.4477 3 11 3.44772 11 4Z" fill="#666666"/>
<path d="M2.74075 9.27629C1.71296 9.75226 1 10.7929 1 12C1 13.6569 2.34315 15 4 15C5.20713 15 6.24774 14.287 6.72371 13.2592L5 11.5355V12C5 12.5523 4.55228 13 4 13C3.44772 13 3 12.5523 3 12C3 11.4477 3.44772 11 4 11H4.46447L2.74075 9.27629Z" fill="#666666"/>
<path d="M1 3L13 15" stroke="#666666" stroke-width="2" stroke-linecap="round"/>
</svg>
