<svg width="16" height="16" viewBox="0 0 16 16" fill="none" xmlns="http://www.w3.org/2000/svg">
<rect x="7" y="4" width="1" height="7" rx="0.5" fill="#666666"/>
<rect x="11" y="12.0858" width="1" height="5" rx="0.5" transform="rotate(-45 11 12.0858)" fill="#666666"/>
<rect x="11" y="7" width="1" height="7" rx="0.5" transform="rotate(90 11 7)" fill="#666666"/>
<path fill-rule="evenodd" clip-rule="evenodd" d="M7.5 13C10.5376 13 13 10.5376 13 7.5C13 4.46243 10.5376 2 7.5 2C4.46243 2 2 4.46243 2 7.5C2 10.5376 4.46243 13 7.5 13ZM7.5 14C11.0899 14 14 11.0899 14 7.5C14 3.91015 11.0899 1 7.5 1C3.91015 1 1 3.91015 1 7.5C1 11.0899 3.91015 14 7.5 14Z" fill="#666666"/>
</svg>
