<svg width="16" height="16" viewBox="0 0 16 16" fill="none" xmlns="http://www.w3.org/2000/svg">
<path d="M2 0C2 0 1 0 1 1V11C1 12 2 12 2 12H4V11H2.5C2.5 11 2 11 2 10.5V1.5C2 1.5 2 1 2.5 1H9.5C9.5 1 10 1 10 1.5V3H11V1C11 0 10 0 10 0H2ZM6 4C6 4 5 4 5 5V15C5 16 6 16 6 16H14C14 16 15 16 15 15V5C15 4 14 4 14 4H6ZM6.5 5H13.5C13.5 5 14 5 14 5.5V14.5C14 15 13.5 15 13.5 15H6.5C6.5 15 6 15 6 14.5V5.5C6 5.5 6 5 6.5 5Z" fill="white"/>
<path d="M7.07324 6.07322C7.12013 6.02634 7.1837 6 7.25 6H12.75C12.8163 6 12.8799 6.02634 12.9268 6.07322C12.9736 6.12011 13 6.1837 13 6.25V6.75C13 6.8163 12.9736 6.87989 12.9268 6.92678C12.8799 6.97366 12.8163 7 12.75 7H7.25C7.112 7 7 6.889 7 6.75V6.25C7 6.1837 7.02636 6.12011 7.07324 6.07322Z" fill="#FA3737"/>
<path d="M7.07324 8.07322C7.12013 8.02634 7.1837 8 7.25 8H12.75C12.8163 8 12.8799 8.02634 12.9268 8.07322C12.9736 8.12011 13 8.1837 13 8.25V8.75C13 8.8163 12.9736 8.87989 12.9268 8.92678C12.8799 8.97366 12.8163 9 12.75 9H7.25C7.112 9 7 8.889 7 8.75V8.25C7 8.1837 7.02636 8.12011 7.07324 8.07322Z" fill="#0E9AFF"/>
<path d="M7.07324 10.0732C7.12013 10.0263 7.1837 10 7.25 10H9.75C9.8163 10 9.87987 10.0263 9.92676 10.0732C9.97364 10.1201 10 10.1837 10 10.25V10.75C10 10.8163 9.97364 10.8799 9.92676 10.9268C9.87987 10.9737 9.8163 11 9.75 11H7.25C7.112 11 7 10.889 7 10.75V10.25C7 10.1837 7.02636 10.1201 7.07324 10.0732Z" fill="#00E224"/>
<path d="M7.07324 12.0732C7.12013 12.0263 7.1837 12 7.25 12H11.75C11.8163 12 11.8799 12.0263 11.9268 12.0732C11.9736 12.1201 12 12.1837 12 12.25V12.75C12 12.8163 11.9736 12.8799 11.9268 12.9268C11.8799 12.9737 11.8163 13 11.75 13H7.25C7.112 13 7 12.889 7 12.75V12.25C7 12.1837 7.02636 12.1201 7.07324 12.0732Z" fill="#E2B100"/>
</svg>
