<svg width="16" height="16" viewBox="0 0 16 16" fill="none" xmlns="http://www.w3.org/2000/svg">
<path d="M2 0C2 0 1 0 1 1V11C1 12 2 12 2 12H4V11H2.5C2.5 11 2 11 2 10.5V1.5C2 1.5 2 1 2.5 1H9.5C9.5 1 10 1 10 1.5V3H11V1C11 0 10 0 10 0H2ZM6 4C6 4 5 4 5 5V15C5 16 6 16 6 16H14C14 16 15 16 15 15V5C15 4 14 4 14 4H6ZM6.5 5H13.5C13.5 5 14 5 14 5.5V14.5C14 15 13.5 15 13.5 15H6.5C6.5 15 6 15 6 14.5V5.5C6 5.5 6 5 6.5 5ZM7.25 6C7.1837 6 7.12013 6.02634 7.07324 6.07322C7.02636 6.12011 7 6.1837 7 6.25V6.75C7 6.889 7.112 7 7.25 7H12.75C12.8163 7 12.8799 6.97366 12.9268 6.92678C12.9736 6.87989 13 6.8163 13 6.75V6.25C13 6.1837 12.9736 6.12011 12.9268 6.07322C12.8799 6.02634 12.8163 6 12.75 6H7.25ZM7.25 8C7.1837 8 7.12013 8.02634 7.07324 8.07322C7.02636 8.12011 7 8.1837 7 8.25V8.75C7 8.889 7.112 9 7.25 9H12.75C12.8163 9 12.8799 8.97366 12.9268 8.92678C12.9736 8.87989 13 8.8163 13 8.75V8.25C13 8.1837 12.9736 8.12011 12.9268 8.07322C12.8799 8.02634 12.8163 8 12.75 8H7.25ZM7.25 10C7.1837 10 7.12013 10.0263 7.07324 10.0732C7.02636 10.1201 7 10.1837 7 10.25V10.75C7 10.889 7.112 11 7.25 11H9.75C9.8163 11 9.87987 10.9737 9.92676 10.9268C9.97364 10.8799 10 10.8163 10 10.75V10.25C10 10.1837 9.97364 10.1201 9.92676 10.0732C9.87987 10.0263 9.8163 10 9.75 10H7.25Z" fill="#666666"/>
</svg>
